<?xml version="1.0" encoding="UTF-8" standalone="no"?>
<!-- Creator: CorelDRAW 2018 (64-Bit) -->

<svg
   xml:space="preserve"
   width="24.2405mm"
   height="24.2405mm"
   version="1.1"
   style="shape-rendering:geometricPrecision; text-rendering:geometricPrecision; image-rendering:optimizeQuality; fill-rule:evenodd; clip-rule:evenodd"
   viewBox="0 0 572.95 572.95"
   id="svg314"
   sodipodi:docname="atena_avatar1.svg"
   inkscape:version="1.2 (dc2aeda, 2022-05-15)"
   xmlns:inkscape="http://www.inkscape.org/namespaces/inkscape"
   xmlns:sodipodi="http://sodipodi.sourceforge.net/DTD/sodipodi-0.dtd"
   xmlns="http://www.w3.org/2000/svg"
   xmlns:svg="http://www.w3.org/2000/svg"><sodipodi:namedview
   id="namedview316"
   pagecolor="#ffffff"
   bordercolor="#000000"
   borderopacity="0.25"
   inkscape:showpageshadow="2"
   inkscape:pageopacity="0.0"
   inkscape:pagecheckerboard="0"
   inkscape:deskcolor="#d1d1d1"
   inkscape:document-units="mm"
   showgrid="false"
   inkscape:zoom="2.5759233"
   inkscape:cx="46.002923"
   inkscape:cy="46.002923"
   inkscape:window-width="1513"
   inkscape:window-height="681"
   inkscape:window-x="0"
   inkscape:window-y="25"
   inkscape:window-maximized="0"
   inkscape:current-layer="Warstwa_x0020_1" />
 <defs
   id="defs267">
  <style
   type="text/css"
   id="style265">
   <![CDATA[
    .str0 {stroke:#FFF7EE;stroke-width:1.8;stroke-miterlimit:22.9256}
    .str1 {stroke:#FFF7EE;stroke-width:25.01;stroke-linecap:round;stroke-linejoin:round;stroke-miterlimit:10}
    .fil2 {fill:none;fill-rule:nonzero}
    .fil0 {fill:#D47005}
    .fil1 {fill:#FFF7EE;fill-rule:nonzero}
   ]]>
  </style>
 </defs>
 <g
   id="Warstwa_x0020_1"
   inkscape:label="Warstwa 1">
  <metadata
   id="CorelCorpID_0Corel-Layer" />
  <g
   id="_3098043057344">
   <circle
   class="fil0"
   cx="286.48"
   cy="286.48"
   r="286.47"
   id="circle270" />
   <g
   id="g310">
    <polygon
   class="fil1"
   points="257.82,357.17 244.08,338.81 272.14,338.81 "
   id="polygon272" />
    <polygon
   class="fil1 str0"
   points="312.35,357.17 298.62,338.81 326.68,338.81 "
   id="polygon274" />
    <polygon
   class="fil1"
   points="286.14,390.52 272.41,372.16 300.47,372.16 "
   id="polygon276" />
    <path
   class="fil2 str1"
   d="M204.65 128.07c-11.86,-8.28 -19.89,-15.82 -19.89,-15.82 0,0 -48.96,49.48 -48.8,145.02 0.25,145.74 150.51,203.43 150.51,203.43 0,0 150.27,-57.69 150.51,-203.43 0.16,-95.53 -48.8,-145.02 -48.8,-145.02 0,0 -8.03,7.54 -19.89,15.83"
   id="path278" />
    <path
   class="fil2 str1"
   d="M435.79 277.76c-55.69,2.73 -100,48.74 -100,105.11 0,14.12 2.78,27.6 7.83,39.9"
   id="path280" />
    <path
   class="fil2 str1"
   d="M137.02 277.76c55.69,2.73 97.29,48.74 97.29,105.11 0,14.12 -2.78,27.6 -7.83,39.9"
   id="path282" />
    <g
   id="g288">
     <line
   class="fil2 str1"
   x1="174.77"
   y1="315.08"
   x2="174.77"
   y2="330.99"
   id="line284" />
     <line
   class="fil2 str1"
   x1="199.26"
   y1="353.17"
   x2="199.26"
   y2="369.07"
   id="line286" />
    </g>
    <g
   id="g294">
     <line
   class="fil2 str1"
   x1="396.35"
   y1="315.08"
   x2="396.35"
   y2="330.99"
   id="line290" />
     <line
   class="fil2 str1"
   x1="371.87"
   y1="353.17"
   x2="371.87"
   y2="369.07"
   id="line292" />
    </g>
    <path
   class="fil2 str1"
   d="M285.38 248.4c-14.01,18.8 -36.41,30.98 -61.66,30.98 -42.44,0 -76.85,-34.41 -76.85,-76.85 0,-42.44 34.41,-76.85 76.85,-76.85 25.49,0 50.99,10.4 64.97,29.5"
   id="path296" />
    <path
   class="fil2 str1"
   d="M288.7 155.18c14.07,-17.96 35.95,-29.5 60.53,-29.5 42.44,0 76.85,34.4 76.85,76.85 0,42.44 -34.4,76.85 -76.85,76.85 -24.98,0 -49.81,-12.51 -63.85,-30.98"
   id="path298" />
    <polyline
   class="fil2 str1"
   points="262.18,269.06 285.38,300.16 305.65,268.71 "
   id="polyline300" />
    <g
   id="g304">
     <path
   class="fil1"
   d="M217.79 174.2c-15.64,0 -28.32,12.68 -28.32,28.33 0,15.64 12.68,28.32 28.32,28.32 15.64,0 28.33,-12.68 28.33,-28.32l-28.33 0 0 -28.33z"
   id="path302" />
    </g>
    <g
   id="g308">
     <path
   class="fil1"
   d="M355.73 175.85c-15.64,0 -28.32,12.68 -28.32,28.32 0,15.64 12.68,28.33 28.32,28.33 15.64,0 28.32,-12.68 28.32,-28.33l-28.32 0 0 -28.32z"
   id="path306" />
    </g>
   </g>
  </g>
 </g>
</svg>
