<?xml version="1.0" encoding="UTF-8"?>
<!DOCTYPE svg PUBLIC "-//W3C//DTD SVG 1.1//EN" "http://www.w3.org/Graphics/SVG/1.1/DTD/svg11.dtd">
<!-- Creator: CorelDRAW 2018 (64-Bit) -->
<svg xmlns="http://www.w3.org/2000/svg" xml:space="preserve" width="35.5044mm" height="30.6524mm" version="1.1" style="shape-rendering:geometricPrecision; text-rendering:geometricPrecision; image-rendering:optimizeQuality; fill-rule:evenodd; clip-rule:evenodd"
viewBox="0 0 1158.2 999.92"
 xmlns:xlink="http://www.w3.org/1999/xlink">
 <defs>
  <style type="text/css">
   <![CDATA[
    .fil10 {fill:#007766;fill-rule:nonzero}
    .fil16 {fill:#031F31;fill-rule:nonzero}
    .fil19 {fill:#0F2F4B;fill-rule:nonzero}
    .fil6 {fill:#161818;fill-rule:nonzero}
    .fil17 {fill:#234675;fill-rule:nonzero}
    .fil21 {fill:#234977;fill-rule:nonzero}
    .fil11 {fill:#90490F;fill-rule:nonzero}
    .fil1 {fill:#C45D00;fill-rule:nonzero}
    .fil5 {fill:#CF4956;fill-rule:nonzero}
    .fil13 {fill:#D47005;fill-rule:nonzero}
    .fil14 {fill:#F6EDCD;fill-rule:nonzero}
    .fil15 {fill:#F7F2DB;fill-rule:nonzero}
    .fil8 {fill:#FB5B67;fill-rule:nonzero}
    .fil0 {fill:#FBCA8C;fill-rule:nonzero}
    .fil3 {fill:#FF7C6E;fill-rule:nonzero}
    .fil2 {fill:#FFA07E;fill-rule:nonzero}
    .fil4 {fill:#FFBF90;fill-rule:nonzero}
    .fil9 {fill:#FFDD9C;fill-rule:nonzero}
    .fil12 {fill:#FFE9AC;fill-rule:nonzero}
    .fil7 {fill:#FFEFE6;fill-rule:nonzero}
    .fil20 {fill:#FFF6ED;fill-rule:nonzero}
    .fil18 {fill:#131311;fill-rule:nonzero;fill-opacity:0.411765}
   ]]>
  </style>
 </defs>
 <g id="Warstwa_x0020_1">
  <metadata id="CorelCorpID_0Corel-Layer"/>
  <g id="_3098046266512">
   <g>
    <path class="fil0" d="M870.16 854.02c-38.18,85.45 -546.99,6.94 -562.3,-89.94 -15.21,-96.06 67.68,-129.65 67.07,-223.26l0 -2.55c-2.14,-95.66 -61.46,-159.16 -54.21,-269.41 5.31,-81.06 80.34,-161.7 119.55,-198.56 12.45,-11.74 21.23,-19.09 23.17,-20.62 0.1,-0.1 0.31,-0.2 0.41,-0.31 0,0 94.84,40.84 181.21,49.31 3.58,0.31 7.15,0.61 10.62,0.82 10.31,0.71 20.42,0.92 30.12,0.41 91.16,-4.49 129.24,109.95 148.03,183.25l0 0.1c0.61,2.25 1.23,4.49 1.74,6.74 18.27,72.89 -16.33,147.41 -34.51,235.62 -18.17,88.2 107.3,242.87 69.11,328.42z"/>
    <g>
     <path class="fil1" d="M318.13 683.43c0,0 -65.47,-4.77 -88.53,29.67 -18.04,26.93 -100.25,191.9 -133.47,286.83l203.79 0c17.21,-134.57 31.27,-281.81 31.27,-281.81l-13.05 -34.69z"/>
    </g>
    <g>
     <g>
      <path class="fil1" d="M412.76 639.66c0,0 -102.02,31.48 -140.91,47.84 0,0 -3.36,204.66 -0.02,249.28 0.78,10.46 5.56,33.7 12.4,63.15l591.57 0c2.55,-21.45 3.94,-38.9 3.52,-49.44 -2.31,-57.73 -31.3,-267.05 -31.3,-267.05l-86.19 -41.37 -349.06 -2.4z"/>
     </g>
    </g>
    <g>
     <path class="fil2" d="M395.82 639.66l106.47 -34.22 16.27 -5.11 7.73 -0.5 105.12 -6.82 8.51 -0.55 14.15 3.88 107.76 45.72c-69.38,103.21 -223.56,167.1 -365.99,-2.4z"/>
     <g>
      <g>
       <path class="fil3" d="M545.13 564.57c28.75,2.21 57.8,-6.28 82.23,-21.81 -5.01,-33.18 -9.01,-73.45 -9.01,-73.45l-112.44 12.91c0,0 5.64,35.77 6.22,69.28 9.45,8.04 22.57,11.98 33,13.07z"/>
       <path class="fil2" d="M531.69 636.04c-12.75,-7.46 -20.73,-19.6 -29.89,-30.11 0.16,-0.16 0.34,-0.32 0.49,-0.48 8.18,-8.24 10.24,-30.54 9.84,-53.95 9.45,8.04 22.57,11.98 33,13.07 28.75,2.22 57.8,-6.28 82.23,-21.8 2.69,17.8 5.66,33.57 8.46,39.96 1.54,3.5 8.31,8.24 18.24,13.62 -17.78,22.15 -37.49,42.19 -62.78,51.16 -19.16,7.19 -40,-0.4 -59.59,-11.47z"/>
      </g>
     </g>
     <g>
      <g>
       <g>
        <g>
         <path class="fil4" d="M694.58 412.37c22.91,-2.14 39.69,-19.28 48.7,-33.66 2.03,-3.24 3.66,-6.34 4.89,-9.1 6.63,-15.01 8.85,-67.21 -7.91,-79.45 -11.74,-8.56 -20.41,3.7 -24.54,11.82 0,0.02 0,0.03 0,0.03 -1.76,3.45 -2.71,6.16 -2.71,6.16l-18.43 104.2z"/>
         <path class="fil2" d="M694.58 412.37c22.91,-2.14 39.69,-19.28 48.7,-33.66 0.78,-1.47 1.46,-2.87 2.05,-4.2 6.63,-15.01 8.85,-67.21 -7.91,-79.44 -9.51,-6.95 -17,-0.22 -21.71,6.9 0,0.02 0,0.03 0,0.03 -1.76,3.45 -2.71,6.16 -2.71,6.16l-18.43 104.2z"/>
         <path class="fil3" d="M745.3 331.67c0.82,4.18 0.26,8.52 -0.85,12.64 -4.71,17.49 -18.58,30.77 -31.86,43.1 4.03,-8.47 5.56,-18.05 4.81,-27.41 -0.26,-3.25 -0.8,-6.49 -0.8,-9.75 -0.02,-13.14 23.87,-43.3 28.7,-18.58z"/>
         <g>
          <path class="fil5" d="M705.93 392.35c0,0 0.26,-0.19 0.75,-0.53 0.48,-0.36 1.25,-0.84 2.14,-1.6 1.78,-1.49 4.23,-3.88 6.56,-7.42 2.32,-3.54 4.42,-8.27 5.44,-13.88 0.93,-5.59 0.78,-12.12 -1.54,-18.41 -0.25,-0.8 -0.6,-1.56 -0.95,-2.31l-0.26 -0.56c-0.06,-0.14 -0.02,-0.06 -0.03,-0.07l0 0.02 -0.01 -0.01 -0.01 0c0,0 -0.01,0.03 0.04,-0.09l0.22 -0.51 0.45 -0.99c0.31,-0.66 0.61,-1.31 0.93,-1.94 1.26,-2.56 2.63,-4.96 4.02,-7.19 1.4,-2.23 2.85,-4.28 4.28,-6.16 1.44,-1.86 2.83,-3.61 4.2,-4.9 1.37,-1.3 2.88,-2.15 4.29,-2.37 1.41,-0.2 2.74,0.22 3.63,0.79 0.9,0.58 1.4,1.32 1.6,1.87 0.22,0.55 0.21,0.88 0.21,0.88 0,0 0.09,-0.32 -0.01,-0.94 -0.09,-0.61 -0.45,-1.53 -1.34,-2.39 -0.89,-0.83 -2.29,-1.62 -4.16,-1.69 -1.86,-0.03 -3.88,0.75 -5.67,2.02 -1.82,1.28 -3.44,2.88 -5.17,4.64 -1.71,1.78 -3.44,3.78 -5.11,6.01 -1.67,2.23 -3.28,4.68 -4.74,7.35 -0.37,0.67 -0.72,1.35 -1.07,2.04l-0.52 1.04 -0.68 1.48 -0.47 1.04c0.12,0.34 0.3,0.69 0.45,1.04l0.66 1.49c0.3,0.65 0.6,1.31 0.81,2.01 2.03,5.46 2.45,11.17 2.03,16.29 -0.51,5.12 -1.9,9.67 -3.58,13.26 -1.68,3.6 -3.59,6.28 -5.03,8.04 -0.71,0.89 -1.36,1.5 -1.75,1.96 -0.41,0.45 -0.62,0.69 -0.62,0.69z"/>
         </g>
        </g>
        <g>
         <path class="fil4" d="M429.73 410.67c-22.88,-2.43 -39.44,-19.78 -48.27,-34.28 -1.98,-3.27 -3.58,-6.39 -4.77,-9.17 -6.44,-15.09 -7.99,-67.31 8.93,-79.34 11.85,-8.41 20.36,3.96 24.39,12.14 0,0.01 0,0.03 0,0.03 1.72,3.48 2.63,6.19 2.63,6.19l17.09 104.42z"/>
         <path class="fil2" d="M429.73 410.67c-22.88,-2.43 -39.44,-19.78 -48.27,-34.28 -0.76,-1.48 -1.43,-2.89 -1.99,-4.22 -6.44,-15.09 -7.99,-67.31 8.93,-79.33 9.6,-6.83 17.01,0 21.62,7.18 0,0.01 0,0.03 0,0.03 1.72,3.48 2.63,6.19 2.63,6.19l17.09 104.42z"/>
         <path class="fil3" d="M380.05 329.32c-0.87,4.17 -0.37,8.52 0.69,12.65 4.49,17.55 18.18,31.01 31.3,43.5 -3.92,-8.52 -5.33,-18.12 -4.45,-27.46 0.3,-3.25 0.87,-6.48 0.92,-9.74 0.19,-13.13 -23.31,-43.6 -28.46,-18.95z"/>
         <g>
          <path class="fil5" d="M418.64 390.5c0,0 -0.26,-0.19 -0.75,-0.54 -0.48,-0.37 -1.24,-0.86 -2.12,-1.62 -1.76,-1.51 -4.18,-3.93 -6.46,-7.51 -2.27,-3.57 -4.31,-8.32 -5.27,-13.94 -0.85,-5.6 -0.63,-12.13 1.78,-18.4 0.26,-0.8 0.61,-1.55 0.98,-2.29l0.27 -0.56c0.07,-0.14 0.03,-0.05 0.04,-0.07l-0.01 0.02 0.01 -0.01 0 0c0,0 0.01,0.03 -0.04,-0.09l-0.22 -0.51 -0.44 -1c-0.3,-0.66 -0.6,-1.31 -0.91,-1.96 -1.23,-2.57 -2.56,-4.99 -3.93,-7.24 -1.37,-2.25 -2.8,-4.32 -4.2,-6.21 -1.42,-1.88 -2.78,-3.65 -4.14,-4.96 -1.36,-1.32 -2.85,-2.18 -4.26,-2.42 -1.41,-0.21 -2.74,0.19 -3.64,0.74 -0.91,0.57 -1.42,1.3 -1.63,1.85 -0.23,0.55 -0.22,0.88 -0.24,0.88 0.03,0 -0.07,-0.32 0.05,-0.93 0.09,-0.61 0.47,-1.53 1.37,-2.37 0.9,-0.82 2.32,-1.59 4.18,-1.64 1.86,-0.01 3.86,0.8 5.65,2.09 1.8,1.3 3.41,2.93 5.11,4.71 1.68,1.8 3.39,3.82 5.03,6.07 1.63,2.25 3.21,4.73 4.64,7.41 0.37,0.67 0.7,1.36 1.05,2.05l0.5 1.05 0.66 1.49 0.46 1.04c-0.12,0.35 -0.31,0.69 -0.46,1.04l-0.68 1.48c-0.31,0.65 -0.62,1.3 -0.84,1.99 -2.09,5.44 -2.59,11.14 -2.24,16.26 0.45,5.13 1.77,9.69 3.41,13.31 1.64,3.63 3.52,6.33 4.93,8.11 0.7,0.9 1.34,1.52 1.73,1.98 0.4,0.45 0.61,0.69 0.61,0.69z"/>
         </g>
        </g>
        <path class="fil4" d="M411.63 296.74c0,0 3.49,101.52 30.15,139.35 22.35,31.67 53.99,82.1 105.04,99.53 9.97,3.4 20.84,3.47 30.85,0.2 51.26,-16.77 83.56,-66.79 106.31,-98.17 27.15,-37.48 31.94,-138.95 31.94,-138.95 0.27,-6.75 0.37,-13.26 0.31,-19.55l0 -0.2c-1.82,-192.14 -151.17,-182.58 -151.17,-182.58 0,0 -147.06,0.42 -153.23,190.42 -0.12,3.27 -0.18,6.58 -0.2,9.96z"/>
        <path class="fil2" d="M411.83 286.78c0.77,16.24 5.92,102.49 30.03,136.68 22.35,31.67 54,82.1 105.04,99.53 9.97,3.4 20.84,3.47 30.85,0.2 51.26,-16.77 83.56,-66.8 106.31,-98.18 27.15,-37.48 31.94,-138.95 31.94,-138.95 0.1,-2.34 0.17,-4.64 0.23,-6.93l0 -0.2c-1.82,-192.14 -151.17,-182.58 -151.17,-182.58 0,0 -147.06,0.42 -153.23,190.42z"/>
        <g>
         <g>
          <g>
           <path class="fil6" d="M671.99 278.85c-2.41,6.25 -10.55,11.15 -16.25,13.92 -2.92,-3.34 -6.49,-5.33 -10.35,-5.33 -9.84,0.01 -17.81,12.84 -17.79,28.64 0.02,15.81 8.01,28.62 17.85,28.61 9.85,-0.01 17.81,-12.83 17.8,-28.64 -0.01,-4.89 -0.78,-9.5 -2.13,-13.53 7.51,-6.61 10.87,-23.67 10.87,-23.67z"/>
           <g>
            <path class="fil7" d="M644.51 319.08c0,0 10.97,3.95 22.26,0.78 11.28,-3.17 18.61,-12.25 18.61,-12.25 0,0 -10.98,-3.94 -22.26,-0.78 -11.28,3.17 -18.6,12.24 -18.6,12.24z"/>
           </g>
          </g>
          <g>
           <path class="fil6" d="M460.89 277.5c2.34,6.28 10.41,11.29 16.07,14.13 2.97,-3.31 6.56,-5.25 10.42,-5.19 9.85,0.13 17.64,13.06 17.43,28.87 -0.22,15.81 -8.37,28.51 -18.22,28.38 -9.85,-0.14 -17.64,-13.06 -17.43,-28.87 0.07,-4.9 0.9,-9.49 2.3,-13.5 -7.42,-6.71 -10.57,-23.81 -10.57,-23.81z"/>
           <g>
            <path class="fil7" d="M487.86 318.08c0,0 -11.02,3.8 -22.27,0.49 -11.24,-3.31 -18.44,-12.48 -18.44,-12.48 0,0 11.02,-3.8 22.26,-0.49 11.24,3.31 18.45,12.48 18.45,12.48z"/>
           </g>
          </g>
         </g>
        </g>
        <path class="fil3" d="M569.3 379.68c-7.67,0.22 -15.02,5.03 -18.3,11.97 -0.41,0.86 -0.76,1.83 -0.5,2.75 0.39,1.38 1.94,2.01 3.32,2.42 9.68,2.86 19.96,3.65 29.96,2.31 18.05,-2.43 -5.57,-19.71 -14.49,-19.45z"/>
        <g>
         <path class="fil8" d="M578.78 394.51c0,0 -0.03,-1.1 -0.17,-3.02 -0.08,-0.96 -0.16,-2.13 -0.22,-3.48 -0.06,-1.36 -0.2,-2.87 -0.23,-4.56 -0.07,-1.68 -0.16,-3.5 -0.19,-5.45 -0.09,-1.94 -0.06,-4.02 -0.11,-6.19 -0,-4.34 0.03,-9.05 0.13,-13.99 0.14,-4.94 0.33,-9.65 0.54,-13.98 0.16,-2.16 0.23,-4.23 0.41,-6.17 0.11,-1.95 0.29,-3.76 0.45,-5.44 0.11,-1.68 0.32,-3.19 0.45,-4.54 0.12,-1.35 0.26,-2.52 0.38,-3.47 0.23,-1.91 0.31,-3.01 0.31,-3.01 0,0 -0.63,0.87 -1.69,2.52 -0.54,0.82 -1.17,1.84 -1.82,3.06 -0.66,1.22 -1.45,2.61 -2.14,4.21 -0.74,1.59 -1.51,3.36 -2.18,5.3 -0.74,1.93 -1.34,4.06 -1.96,6.31 -1.13,4.51 -1.95,9.6 -2.09,14.98 -0.11,5.39 0.46,10.51 1.37,15.07 0.51,2.28 1.01,4.42 1.66,6.39 0.58,1.98 1.27,3.78 1.92,5.41 0.62,1.63 1.34,3.06 1.94,4.31 0.59,1.25 1.17,2.3 1.67,3.14 0.98,1.69 1.57,2.59 1.57,2.59z"/>
        </g>
        <g>
         <path class="fil8" d="M501.8 414.91c0,0 28.16,24.56 64.84,23.05 36.68,-1.52 58.51,-29.11 58.51,-29.11 0,0 -51.71,31.23 -123.35,6.06z"/>
         <path class="fil8" d="M531.53 445.42c0,0 16.03,13.98 36.91,13.12 20.88,-0.86 33.31,-16.57 33.31,-16.57 0,0 -29.44,17.78 -70.22,3.45z"/>
        </g>
       </g>
      </g>
      <g>
       <g>
        <g>
         <path class="fil0" d="M426.88 385.72c0,0 -0.36,-2.3 -1.12,-6.35 -0.19,-1 -0.41,-2.12 -0.64,-3.35 -0.21,-1.23 -0.43,-2.57 -0.67,-4 -0.47,-2.87 -1.12,-6.07 -1.62,-9.68 -0.29,-1.78 -0.59,-3.65 -0.9,-5.59 -0.32,-1.93 -0.55,-3.98 -0.86,-6.06 -0.66,-4.15 -1.15,-8.64 -1.79,-13.29 -1.11,-9.36 -2.21,-19.57 -3.18,-30.32 -0.91,-10.76 -1.6,-21.02 -2.14,-30.46 -0.18,-4.71 -0.48,-9.22 -0.55,-13.45 -0.06,-2.12 -0.18,-4.17 -0.21,-6.15 -0.03,-1.98 -0.06,-3.88 -0.09,-5.69 -0.13,-3.65 -0.05,-6.94 -0.09,-9.87 -0.01,-1.46 -0.03,-2.83 -0.04,-4.09 0.02,-1.26 0.03,-2.4 0.05,-3.44 0.04,-4.15 -0.01,-6.49 -0.01,-6.49 0,0 -0.81,2.1 -2.14,5.99 -0.33,0.98 -0.69,2.06 -1.1,3.25 -0.38,1.2 -0.74,2.51 -1.14,3.92 -0.78,2.83 -1.74,6.06 -2.49,9.7 -0.39,1.82 -0.8,3.74 -1.23,5.73 -0.41,2 -0.71,4.1 -1.08,6.28 -0.76,4.35 -1.24,9.05 -1.72,14.02 -0.79,9.94 -0.95,20.99 0.02,32.48 1.04,11.48 3.12,22.25 5.61,31.77 1.33,4.74 2.62,9.22 4.11,13.29 0.73,2.04 1.39,4.02 2.14,5.88 0.76,1.84 1.49,3.61 2.2,5.3 1.37,3.38 2.86,6.3 4.12,8.87 0.64,1.28 1.22,2.47 1.79,3.55 0.6,1.06 1.15,2.03 1.64,2.9 1.98,3.47 3.13,5.32 3.13,5.32z"/>
        </g>
        <g>
         <path class="fil0" d="M694.66 418.06c0,0 0.98,-2 2.62,-5.69 1.66,-3.68 3.9,-9.09 6.38,-15.91 2.5,-6.81 5.16,-15.08 7.65,-24.43 2.45,-9.36 4.71,-19.82 6.34,-30.95 1.6,-11.14 2.44,-21.89 2.78,-31.68 0.3,-9.8 0.13,-18.64 -0.3,-26.04 -0.41,-7.41 -0.99,-13.39 -1.52,-17.51 -0.51,-4.12 -0.86,-6.39 -0.86,-6.39 0,0 -0.52,2.24 -1.33,6.28 -0.79,4.04 -1.96,9.86 -3.28,17.02 -1.31,7.16 -2.88,15.64 -4.46,25.02 -1.62,9.39 -3.29,19.67 -4.85,30.5 -1.59,10.83 -2.93,21.18 -4.06,30.66 -1.16,9.47 -2.09,18.08 -2.87,25.34 -0.77,7.27 -1.32,13.22 -1.72,17.34 -0.38,4.12 -0.52,6.44 -0.52,6.44z"/>
        </g>
        <g>
         <path class="fil3" d="M648.14 377.73c2.45,6.67 20.74,6.1 40.84,-1.28 20.11,-7.38 34.42,-18.77 31.97,-25.45 -2.45,-6.67 -20.73,-6.1 -40.84,1.28 -20.11,7.38 -34.42,18.77 -31.97,25.45z"/>
         <path class="fil3" d="M405.76 347.66c-2.78,6.54 10.96,18.63 30.68,26.99 19.72,8.36 37.95,9.83 40.73,3.28 2.78,-6.55 -10.96,-18.63 -30.68,-26.99 -19.72,-8.36 -37.95,-9.83 -40.73,-3.29z"/>
        </g>
       </g>
       <g>
        <g>
         <path class="fil0" d="M770.93 245.37c-0.1,5.82 -0.41,11.64 -1.02,17.46 -0.41,5.62 -1.02,11.13 -1.74,16.74 -2.14,16.74 -5.51,33.48 -8.98,49.82 -44.71,-33.69 -76.97,-82.39 -92.59,-136.08 -5.92,-19.91 -9.5,-40.63 -10.62,-61.35 -15.82,29.5 -32.36,46.55 -53.8,58.7 -17.76,10.31 -39,17.25 -65.74,25.42 5.21,-9.19 10.31,-18.27 15.41,-27.57 1.32,-2.14 2.55,-4.29 3.67,-6.43 -2.35,1.94 -4.9,4.09 -7.75,6.33 -52.48,41.96 -165.59,115.77 -165.59,115.77 0,0 0.61,-29.2 2.76,-63.5 1.23,-19.5 2.96,-40.53 5.51,-58.8 1.84,-12.66 3.78,-23.99 6.33,-32.67 2.24,-7.97 5,-15.82 8.37,-23.59 0.82,-2.04 1.74,-4.08 2.66,-6.02 0.71,-1.74 1.63,-3.37 2.45,-5 0.1,-0.21 0.21,-0.51 0.41,-0.71 1.12,-2.55 2.45,-5 3.88,-7.45 0.72,-1.32 1.33,-2.66 2.15,-3.98 1.73,-2.96 3.57,-5.92 5.41,-8.78 2.04,-3.16 4.19,-6.23 6.53,-9.29 2.76,-3.78 5.72,-7.45 8.98,-11.02 0.82,-1.02 1.74,-2.04 2.66,-3.06 1.32,-1.53 2.86,-3.06 4.39,-4.59 2.66,-2.76 5.62,-5.41 8.68,-8.06 2.76,-2.35 5.41,-4.6 8.37,-6.74 0.61,-0.51 1.13,-0.92 1.74,-1.23 0.1,-0.1 0.31,-0.2 0.41,-0.31 2.86,-2.04 5.62,-3.98 8.58,-5.82 18.27,-11.23 38.9,-18.58 59.93,-22.36 30.12,-5 61.97,-2.76 89.84,9.8 6.94,3.16 13.89,7.25 20.32,12.05 1.63,1.22 3.27,2.35 4.9,3.68 1.53,1.22 3.16,2.55 4.59,3.98 1.02,0.82 2.05,1.74 2.96,2.66 1.33,1.12 2.55,2.35 3.67,3.57 1.53,1.63 2.96,3.06 4.39,4.8l4.59 5.51c1.33,1.53 2.55,3.06 3.68,4.7 11.64,20.21 13.27,24.09 14.5,27.97 17.35,6.84 33.07,17.56 46.14,31.14 0.61,0.71 1.33,1.43 1.94,2.15 2.04,1.94 3.78,4.08 5.51,6.23 2.45,2.96 4.7,5.82 6.74,8.98 2.14,3.06 4.08,6.33 5.92,9.5 7.05,12.56 11.95,25.93 14.81,39.61 3.47,15.52 4.69,31.54 4.08,47.88z"/>
         <path class="fil9" d="M703.67 259.33c0,0 -65.75,-50.31 -90.05,-34.06 -14.18,9.49 -3.34,16.64 -3.34,16.64l93.39 17.41z"/>
         <path class="fil9" d="M427.37 254.14c0,0 70.82,-42.88 93.21,-24.09 13.07,10.97 1.52,16.9 1.52,16.9l-94.73 7.19z"/>
        </g>
       </g>
      </g>
     </g>
    </g>
    <path class="fil10" d="M861.45 780.16c0,0 47.3,180.41 52.76,214.98 0.23,1.46 0.4,3.06 0.53,4.78l27.4 0c-11.08,-47.12 -80.7,-219.76 -80.7,-219.76z"/>
    <g>
     <path class="fil11" d="M331.19 780.16c0,0 -47.31,180.41 -52.77,214.98 -0.23,1.46 -0.4,3.06 -0.53,4.78l-27.4 0c11.08,-47.12 80.7,-219.76 80.7,-219.76z"/>
    </g>
    <path class="fil9" d="M770.93 230.04c-4.69,-3.06 -9.29,-6.22 -13.78,-9.49 2.25,14.09 4.49,28.28 6.64,42.47 -48.08,-51.14 -85.25,-112.5 -108.11,-178.86 -0.92,-2.24 -1.63,-4.59 -2.45,-6.94 -2.66,2.14 -5.41,4.19 -8.17,6.13 -30.73,22.56 -66.66,37.87 -104.23,44.4 -0.21,-12.35 -0.51,-24.7 -0.71,-37.05 -43.29,53.6 -96.07,99.43 -155.18,134.65 -3.16,2.04 -6.43,3.88 -9.59,5.72 -0.21,-11.13 -0.31,-22.26 -0.41,-33.49 -31.04,36.45 -33.89,89.33 -25.83,136.6 8.06,47.16 25.32,92.69 28.89,140.47 1.23,16.74 0.41,34.2 -3.06,50.84l0 -2.55c-2.14,-95.66 -61.46,-159.16 -54.21,-269.41 0.61,-8.88 2.04,-17.76 4.19,-26.64 17.15,-71.56 80.45,-139.15 115.36,-171.92 1.32,-1.53 2.86,-3.06 4.39,-4.59 2.66,-2.76 5.62,-5.41 8.68,-8.07 2.76,-2.35 5.41,-4.59 8.37,-6.74 0.61,-0.51 1.13,-0.92 1.74,-1.23 0.1,-0.1 0.31,-0.21 0.41,-0.31 2.86,-2.04 5.62,-3.98 8.58,-5.82 18.27,-11.23 38.9,-18.58 59.93,-22.36 30.12,-5 61.97,-2.76 89.84,9.8 6.94,3.16 13.89,7.25 20.32,12.05 1.63,1.22 3.27,2.35 4.9,3.67 1.53,1.23 3.16,2.55 4.59,3.98 1.02,0.82 1.94,1.63 2.86,2.55l0.1 0.1c1.33,1.12 2.55,2.35 3.67,3.57 1.53,1.63 2.96,3.06 4.39,4.8l4.59 5.51c1.33,1.53 2.55,3.06 3.68,4.7 11.64,20.21 13.27,24.09 14.5,27.97 0.81,0 1.53,-0.1 2.35,0 69.11,-1.94 107.29,65.24 129.65,129.35 6.64,18.88 11.84,37.36 16.03,53.9 -21.64,-11.44 -42.68,-23.99 -62.89,-37.78z"/>
    <path class="fil12" d="M651.99 35.36c1.02,0.82 1.94,1.63 2.86,2.55 -28.38,17.25 -59.93,29.4 -92.59,35.42 0.31,-8.98 0.61,-17.87 0.82,-26.85 -52.17,39.81 -107.4,75.75 -164.88,107.5 7.04,-13.98 12.66,-28.79 16.44,-44 -38.79,30.93 -69.73,71.46 -89.74,116.89 17.15,-71.56 80.45,-139.15 115.36,-171.92 1.32,-1.53 2.86,-3.06 4.39,-4.59 2.66,-2.76 5.62,-5.41 8.68,-8.07 2.76,-2.35 5.41,-4.59 8.37,-6.74 0.61,-0.51 1.13,-0.92 1.74,-1.23 0.1,-0.1 0.31,-0.21 0.41,-0.31 2.86,-2.04 5.62,-3.98 8.58,-5.82 18.27,-11.23 38.9,-18.58 59.93,-22.36 30.12,-5 61.97,-2.76 89.84,9.8 6.94,3.16 13.89,7.25 20.32,12.05 1.63,1.22 3.27,2.35 4.9,3.67 1.53,1.23 3.16,2.55 4.59,3.98z"/>
    <path class="fil12" d="M817.79 213.91c-34.61,-12.45 -65.95,-34.2 -89.33,-62.69 -2.04,12.76 -2.96,25.63 -2.66,38.59 -16.54,-32.57 -29.1,-67.18 -37.16,-102.91 -0.21,-0.81 -0.3,-1.53 -0.51,-2.35 69.11,-1.94 107.29,65.24 129.65,129.35z"/>
    <g>
     <path class="fil13" d="M290.05 828.4c0,0 -104.26,96.8 -156.78,171.53l264.96 0c-0.73,-38.66 -1.79,-67.9 -1.79,-67.9l-106.38 -103.63z"/>
    </g>
    <g>
     <path class="fil1" d="M848.01 683.43c0,0 65.46,-4.77 88.53,29.67 19.03,28.4 97.48,199.34 122.32,286.83l-192.63 0c-17.21,-134.57 -31.27,-281.81 -31.27,-281.81l13.05 -34.69z"/>
    </g>
    <g>
     <path class="fil13" d="M876.09 828.4c0,0 77.58,97.32 118.68,171.53l-226.85 0c0.73,-38.66 1.79,-67.9 1.79,-67.9l106.38 -103.63z"/>
    </g>
    <g>
     <g>
      <g>
       <path class="fil14" d="M577.59 471.78l1.39 136.63 321.95 -227.19c0,0 -25.73,-11.69 -43.72,-27.59 -5.87,-5.16 -10.91,-10.77 -13.96,-16.56 0,0 -203.9,-19.18 -265.67,134.7z"/>
      </g>
      <g>
       <path class="fil15" d="M577.59 471.78l0.29 28.63c7.62,-6.9 15.67,-15.88 24.15,-27.23 96.34,-128.87 255.18,-119.54 255.18,-119.54 -5.87,-5.16 -10.91,-10.77 -13.96,-16.56 0,0 -203.9,-19.18 -265.67,134.7z"/>
      </g>
      <g>
       <path class="fil16" d="M624.99 481.15c0,0 144.5,-120.44 302.67,-96.68l4.12 405.71c0,0 -259.48,-7.56 -302.91,72.98l-3.88 -382z"/>
      </g>
      <g>
       <path class="fil17" d="M625.14 495.09l3.88 382c43.43,-80.53 302.91,-72.97 302.91,-72.97l-4.12 -405.7c-1.35,-0.21 -2.73,-0.39 -4.09,-0.55 -156.56,-21.14 -298.59,97.22 -298.59,97.22z"/>
      </g>
      <g>
       <path class="fil18" d="M627.68 745.83l1.33 131.25c43.43,-80.53 302.91,-72.97 302.91,-72.97l-4.12 -405.7c-1.35,-0.21 -2.73,-0.39 -4.09,-0.55 -14.87,82.74 -79.25,346.46 -296.04,347.97z"/>
      </g>
     </g>
     <g>
      <g>
       <path class="fil14" d="M569.59 471.85l1.39 136.63 -326.51 -221.69c0,0 25.49,-12.13 43.15,-28.33 5.76,-5.25 10.69,-10.96 13.62,-16.79 0,0 203.48,-22.63 268.35,130.18z"/>
      </g>
      <g>
       <path class="fil15" d="M569.59 471.85l0.29 28.63c-7.76,-6.77 -15.99,-15.61 -24.7,-26.81 -98.94,-127.21 -257.57,-115.2 -257.57,-115.2 5.76,-5.25 10.69,-10.96 13.62,-16.79 0,0 203.48,-22.63 268.35,130.18z"/>
      </g>
      <g>
       <path class="fil16" d="M522.39 482.01c0,0 -146.92,-117.97 -304.58,-91.53l4.12 405.7c0,0 259.28,-11.96 304.34,67.84l-3.88 -382.01z"/>
      </g>
      <g>
       <path class="fil17" d="M522.52 495.96l3.88 382c-45.05,-79.78 -304.34,-67.83 -304.34,-67.83l-4.12 -405.7c1.35,-0.23 2.72,-0.43 4.07,-0.62 156.11,-23.79 300.51,92.15 300.51,92.15z"/>
      </g>
      <g>
       <path class="fil18" d="M525.07 746.7l1.33 131.25c-45.05,-79.78 -304.34,-67.83 -304.34,-67.83l-4.12 -405.7c1.35,-0.23 2.72,-0.43 4.07,-0.62 16.55,82.47 86.27,345.06 303.05,342.9z"/>
      </g>
     </g>
     <g>
      <polygon class="fil19" points="518.39,878.03 629.01,877.09 625.13,495.09 514.52,496.02 "/>
     </g>
     <g>
      <path class="fil16" d="M514.52 496.02l110.62 -0.94 -0.14 -13.95c-37.01,-12.7 -73.88,-12.38 -110.62,0.94l0.14 13.94z"/>
     </g>
    </g>
    <g>
     <g>
      <path class="fil2" d="M467.41 558.6c-9.98,-5.42 -127.87,133.91 -127.87,133.91 -0.33,-28.96 -10.89,-57.81 -29.4,-80.15 -0.18,-0.21 -0.35,-0.41 -0.53,-0.61 -1.76,-1.95 -4.02,-3.75 -6.49,-3.25 -1.19,0.25 -2.2,1 -3.09,1.81 -7.69,6.91 -10.31,18 -9.98,28.36 0.35,10.32 3.27,20.39 4.76,30.57 2.96,19.57 -1.64,39.11 -6.24,58.34 -7.71,32.55 33.91,76.5 33.91,76.5 0,0 -20.75,29.89 -23.97,35.68l82.94 80.24 34.31 -88.2 24.17 -9.14c16.39,-8.83 115.59,-152.81 108.21,-161.9 -1.98,-2.47 -4.39,-4.95 -6.83,-7.26 -3.79,-3.57 -7.59,-6.66 -10.14,-8.71 -1.91,-1.49 -3.13,-2.34 -3.13,-2.34 0,0 -2.26,-6.11 -5.81,-12.75 -2,-4 -4.5,-8.16 -7.15,-11.43 -2.83,-3.56 -5.96,-5.99 -8.97,-5.97 -3.01,0.02 -11.94,6.59 -23.13,15.88 -27.67,22.87 -69.22,61.96 -69.88,57.78 -0.85,-5.83 66.57,-112.28 66.57,-112.28 0,0 -0.94,-3.82 -4.08,-7.99 -1.86,-2.46 -4.51,-5.08 -8.2,-7.09z"/>
     </g>
     <g>
      <g>
       <path class="fil5" d="M522.27 629.69c-2.1,2.51 -4.27,5.05 -6.55,7.55 -13.27,14.65 -26.98,26.33 -37.32,34.2 -9.71,7.37 -16.42,11.54 -17.23,12.02 0.53,-0.76 5.09,-7.21 12.51,-16.77 7.94,-10.23 19.05,-24.02 32.11,-38.42 3.15,-3.47 6.28,-6.8 9.31,-10.01 2.65,3.25 5.13,7.42 7.17,11.42z"/>
      </g>
      <g>
       <path class="fil5" d="M541.3 653.5c-20.66,23.73 -41.29,39.15 -42.6,40.11 0.73,-1.48 12.54,-24.43 32.51,-48.84 2.54,2.05 6.34,5.16 10.09,8.72z"/>
      </g>
     </g>
    </g>
    <g>
     <g>
      <path class="fil2" d="M690.74 560.11c9.98,-5.42 127.87,133.91 127.87,133.91 0.34,-28.96 10.9,-57.81 29.4,-80.15 0.18,-0.21 0.36,-0.41 0.53,-0.61 1.76,-1.95 4.02,-3.75 6.49,-3.25 1.19,0.25 2.2,1 3.09,1.81 7.69,6.91 10.31,18 9.98,28.36 -0.35,10.32 -3.27,20.39 -4.76,30.57 -2.96,19.57 1.64,39.11 6.24,58.34 7.71,32.55 -33.91,76.5 -33.91,76.5 0,0 22.19,32.04 25.41,37.83l-83.37 80.7 -35.33 -90.81 -24.17 -9.14c-16.39,-8.84 -115.59,-152.81 -108.21,-161.9 1.98,-2.47 4.39,-4.95 6.83,-7.26 3.79,-3.57 7.59,-6.66 10.14,-8.71 1.91,-1.48 3.13,-2.33 3.13,-2.33 0,0 2.25,-6.11 5.82,-12.75 2,-4 4.5,-8.17 7.15,-11.43 2.83,-3.56 5.96,-5.99 8.97,-5.97 3.01,0.02 11.94,6.59 23.13,15.88 27.67,22.87 69.22,61.96 69.88,57.78 0.85,-5.83 -66.57,-112.28 -66.57,-112.28 0,0 0.94,-3.82 4.09,-7.99 1.85,-2.46 4.51,-5.08 8.2,-7.09z"/>
     </g>
     <g>
      <g>
       <path class="fil5" d="M635.88 631.2c2.1,2.51 4.27,5.05 6.55,7.55 13.27,14.65 26.98,26.33 37.32,34.2 9.71,7.37 16.42,11.55 17.23,12.03 -0.53,-0.76 -5.09,-7.21 -12.51,-16.77 -7.94,-10.23 -19.05,-24.02 -32.11,-38.42 -3.15,-3.47 -6.28,-6.8 -9.31,-10.01 -2.65,3.25 -5.13,7.42 -7.17,11.42z"/>
      </g>
      <g>
       <path class="fil5" d="M616.85 655.01c20.66,23.73 41.29,39.15 42.6,40.11 -0.73,-1.48 -12.54,-24.43 -32.51,-48.84 -2.54,2.05 -6.34,5.16 -10.09,8.72z"/>
      </g>
     </g>
    </g>
   </g>
   <g>
    <g>
     <g>
      <path class="fil13" d="M210.4 234.55l18.67 39.85 -35.84 -29.27 -66.6 41.76c0,0 -67.64,-51.51 -69.21,-59.32 -1.56,-7.8 24.97,-114.47 24.97,-114.47 0,0 125.49,-1.4 146.68,0 7.86,0.52 32.84,59.07 32.84,65.74 0,6.67 -51.51,55.71 -51.51,55.71z"/>
     </g>
     <path class="fil20" d="M184.53 201.03c3.75,-14.57 6.06,-26.96 3.46,-42.52 -1.3,-7.84 -4.36,-26.5 -16.1,-24.4 -21.84,3.9 -23.73,40.72 -23.73,40.72 0,0 -38.68,-14.98 -40.24,5.3 -1.36,17.77 40.38,26.95 52.23,30.29 4.44,1.25 9.62,3.4 14.24,3.7 7.43,0.48 6.9,-0.84 8.82,-8.07 0.45,-1.71 0.89,-3.37 1.31,-5.02z"/>
    </g>
    <g>
     <path class="fil21" d="M1005.05 648.77l-36.05 0.46 34.39 15.97 -7 64.01c0,0 62.13,31.48 68.45,29.84 6.31,-1.63 75.48,-59.3 75.48,-59.3 0,0 -43.78,-93.02 -52.38,-108.14 -3.19,-5.61 -55.28,-3.11 -60.2,-0.73 -4.92,2.38 -22.68,57.88 -22.68,57.88z"/>
     <g>
      <path class="fil13" d="M1039 655.87c9.4,-7.97 17.71,-14.09 30.11,-17.74 6.24,-1.84 21.1,-6.25 23.74,3.15 4.93,17.49 -21.55,32.04 -21.55,32.04 0,0 24.86,23.16 10.46,31.56 -12.61,7.35 -34.29,-20.14 -40.98,-27.69 -2.51,-2.83 -5.94,-5.88 -7.81,-9.18 -3.01,-5.31 -1.84,-5.39 2.8,-9.39 1.1,-0.94 2.17,-1.86 3.23,-2.76z"/>
     </g>
    </g>
    <g>
     <g>
      <g>
       <path class="fil21" d="M136.76 691.42l27.5 -23.31 -36.68 9.58 -35.37 -53.82c0,0 -67.95,15.31 -71.77,20.59 -3.83,5.28 -20.43,93.79 -20.43,93.79 0,0 93,43.83 109.26,50.01 6.03,2.29 44.6,-32.8 46.88,-37.78 2.27,-4.97 -19.38,-59.06 -19.38,-59.06z"/>
      </g>
     </g>
     <g>
      <path class="fil20" d="M82.97 700.5c-1.79,1.02 -3.55,1.63 -5.27,1.83 -1.72,0.2 -3.37,0.16 -4.96,-0.12 -1.59,-0.28 -3.13,-0.68 -4.64,-1.17 -1.5,-0.5 -2.94,-0.95 -4.29,-1.37 -1.36,-0.41 -2.66,-0.66 -3.92,-0.72 -1.26,-0.06 -2.45,0.23 -3.58,0.87 -1.84,1.05 -2.9,2.66 -3.16,4.81 -0.26,2.15 0.32,4.49 1.75,7 1.37,2.41 3.1,4.27 5.18,5.6 2.08,1.32 4.37,2.09 6.86,2.3l-0.15 12.41c-4.29,-0.26 -8.41,-1.69 -12.36,-4.26 -3.94,-2.57 -7.39,-6.44 -10.34,-11.62 -2.19,-3.84 -3.57,-7.54 -4.13,-11.08 -0.56,-3.55 -0.27,-6.75 0.88,-9.62 1.15,-2.86 3.27,-5.17 6.34,-6.92 2,-1.14 3.94,-1.84 5.83,-2.1 1.89,-0.26 3.67,-0.23 5.36,0.1 1.68,0.33 3.32,0.77 4.92,1.31 1.6,0.55 3.14,1.05 4.62,1.49 1.48,0.45 2.91,0.7 4.3,0.76 1.39,0.06 2.78,-0.31 4.16,-1.1l6.61 11.6zm15.96 -16.83l0 0c1.23,2.15 1.54,4.31 0.95,6.48 -0.59,2.17 -1.84,3.8 -3.74,4.88 -1.95,1.11 -3.97,1.34 -6.06,0.71 -2.09,-0.64 -3.75,-2.03 -4.98,-4.19 -1.26,-2.2 -1.62,-4.35 -1.09,-6.46 0.53,-2.1 1.77,-3.71 3.72,-4.81 1.9,-1.08 3.92,-1.34 6.08,-0.77 2.16,0.57 3.86,1.96 5.12,4.16z"/>
     </g>
    </g>
    <g>
     <g>
      <g>
       <path class="fil13" d="M915.87 193.3l-29.57 63.09 56.76 -46.35 105.45 66.13c0,0 107.11,-81.56 109.58,-93.92 2.47,-12.36 -39.55,-181.25 -39.55,-181.25 0,0 -198.7,-2.22 -232.24,0 -12.45,0.82 -52,93.53 -52,104.09 0,10.57 81.56,88.22 81.56,88.22z"/>
      </g>
     </g>
     <g>
      <path class="fil20" d="M990.23 125.26c1.22,-4.74 3.08,-8.74 5.58,-11.99 2.49,-3.26 5.29,-6 8.4,-8.23 3.1,-2.23 6.32,-4.21 9.66,-5.96 3.33,-1.74 6.47,-3.42 9.42,-5.04 2.94,-1.62 5.51,-3.45 7.7,-5.49 2.18,-2.04 3.66,-4.54 4.42,-7.52 1.26,-4.88 0.27,-9.32 -2.96,-13.33 -3.23,-4 -8.16,-6.86 -14.79,-8.57 -6.36,-1.64 -12.39,-1.78 -18.08,-0.43 -5.69,1.35 -10.77,3.98 -15.24,7.87l-20.86 -20.74c7.54,-6.87 16.75,-11.53 27.64,-14 10.88,-2.47 23.16,-1.93 36.84,1.59 10.15,2.61 18.71,6.37 25.68,11.27 6.96,4.9 11.93,10.69 14.9,17.37 2.97,6.69 3.41,14.09 1.32,22.22 -1.36,5.28 -3.38,9.74 -6.04,13.38 -2.67,3.64 -5.68,6.62 -9.02,8.94 -3.34,2.31 -6.8,4.38 -10.37,6.2 -3.58,1.82 -6.96,3.62 -10.16,5.39 -3.2,1.78 -6,3.8 -8.38,6.07 -2.39,2.27 -4.06,5.23 -5,8.89l-30.66 -7.9zm2.3 54.94l0 0c-5.69,-1.46 -9.88,-4.5 -12.6,-9.09 -2.72,-4.59 -3.43,-9.39 -2.14,-14.41 1.32,-5.14 4.26,-8.97 8.8,-11.48 4.54,-2.51 9.66,-3.04 15.34,-1.57 5.82,1.5 10.08,4.44 12.78,8.81 2.7,4.38 3.39,9.14 2.06,14.28 -1.29,5.01 -4.2,8.88 -8.73,11.61 -4.53,2.73 -9.71,3.35 -15.53,1.85z"/>
     </g>
    </g>
   </g>
  </g>
 </g>
</svg>
