<?xml version="1.0" encoding="UTF-8"?>
<!DOCTYPE svg PUBLIC "-//W3C//DTD SVG 1.1//EN" "http://www.w3.org/Graphics/SVG/1.1/DTD/svg11.dtd">
<!-- Creator: CorelDRAW 2018 (64-Bit) -->
<svg xmlns="http://www.w3.org/2000/svg" xml:space="preserve" width="16.8371mm" height="11.8958mm" version="1.1" style="shape-rendering:geometricPrecision; text-rendering:geometricPrecision; image-rendering:optimizeQuality; fill-rule:evenodd; clip-rule:evenodd"
viewBox="0 0 243.63 172.13"
 xmlns:xlink="http://www.w3.org/1999/xlink">
 <defs>
  <style type="text/css">
   <![CDATA[
    .str0 {stroke:#00214B;stroke-width:5.11;stroke-linecap:round;stroke-linejoin:round;stroke-miterlimit:10}
    .fil8 {fill:none;fill-rule:nonzero}
    .fil0 {fill:#1C2B44;fill-rule:nonzero}
    .fil14 {fill:#234977;fill-rule:nonzero}
    .fil7 {fill:#2A5D80;fill-rule:nonzero}
    .fil4 {fill:#426990;fill-rule:nonzero}
    .fil6 {fill:#59311A;fill-rule:nonzero}
    .fil9 {fill:#C3AA89;fill-rule:nonzero}
    .fil1 {fill:#D47005;fill-rule:nonzero}
    .fil3 {fill:#E4D1B8;fill-rule:nonzero}
    .fil2 {fill:#F0E1CA;fill-rule:nonzero}
    .fil11 {fill:#FDF9F0;fill-rule:nonzero}
    .fil10 {fill:#FF9031;fill-rule:nonzero}
    .fil13 {fill:#FFFBF6;fill-rule:nonzero}
    .fil12 {fill:#070505;fill-rule:nonzero;fill-opacity:0.360784}
    .fil5 {fill:#0F0A05;fill-rule:nonzero;fill-opacity:0.741176}
   ]]>
  </style>
 </defs>
 <g id="Warstwa_x0020_1">
  <metadata id="CorelCorpID_0Corel-Layer"/>
  <g id="_3098050360832">
   <path class="fil0" d="M119.16 0l0 0c65.65,0 118.87,53.22 118.87,118.87l0 43.03 -237.75 0 0 -43.03c0,-65.65 53.22,-118.87 118.87,-118.87z"/>
   <g>
    <g>
     <g>
      <g>
       <g>
        <path class="fil1" d="M134.2 143.74l83.87 0c5.2,0 9.42,-4.22 9.42,-9.42l0 -9.55c0,-5.2 -4.22,-9.42 -9.42,-9.42l-83.87 0 0 28.39z"/>
       </g>
       <path class="fil2" d="M134.52 139.53l80.28 0c3.66,0 6.62,-2.96 6.62,-6.62l0 -6.71c0,-3.66 -2.96,-6.62 -6.62,-6.62l-80.28 0c-0.18,0 -0.32,0.14 -0.32,0.32l0 19.32c0,0.18 0.14,0.32 0.32,0.32z"/>
      </g>
      <polygon class="fil3" points="134.2,127.35 209.79,127.35 134.2,133.02 "/>
     </g>
     <g>
      <g>
       <g>
        <path class="fil1" d="M227.49 87.83l-83.87 0c-5.2,0 -9.42,-4.22 -9.42,-9.42l0 -9.55c0,-5.2 4.22,-9.42 9.42,-9.42l83.87 0 0 28.39z"/>
       </g>
       <path class="fil2" d="M227.17 83.61l-80.28 0c-3.66,0 -6.62,-2.96 -6.62,-6.62l0 -6.71c0,-3.66 2.96,-6.62 6.62,-6.62l80.28 0c0.18,0 0.32,0.14 0.32,0.32l0 19.32c0,0.18 -0.14,0.32 -0.32,0.32z"/>
      </g>
      <polygon class="fil3" points="227.49,71.43 151.9,71.43 227.49,77.1 "/>
     </g>
     <g>
      <g>
       <g>
        <path class="fil1" d="M102.15 170.42l-83.87 0c-5.2,0 -9.42,-4.22 -9.42,-9.42l0 -9.55c0,-5.2 4.22,-9.42 9.42,-9.42l83.87 0 0 28.39z"/>
       </g>
       <path class="fil2" d="M101.83 166.2l-80.28 0c-3.66,0 -6.62,-2.96 -6.62,-6.62l0 -6.71c0,-3.66 2.96,-6.62 6.62,-6.62l80.28 0c0.18,0 0.32,0.14 0.32,0.32l0 19.32c0,0.18 -0.14,0.32 -0.32,0.32z"/>
      </g>
      <polygon class="fil3" points="102.15,154.02 26.56,154.02 102.15,159.69 "/>
     </g>
     <g>
      <g>
       <path class="fil4" d="M120.91 172.13l78.08 0c8.4,0 15.21,-6.36 15.21,-14.19 0,-7.84 -6.81,-14.2 -15.21,-14.2l-78.08 0 0 28.39z"/>
       <path class="fil2" d="M121.43 167.92l76.01 0c5.9,0 10.69,-4.47 10.69,-9.98 0,-5.51 -4.79,-9.98 -10.69,-9.98l-76.01 0c-0.29,0 -0.52,0.22 -0.52,0.48l0 18.99c0,0.27 0.23,0.48 0.52,0.48z"/>
      </g>
      <polygon class="fil3" points="120.91,155.94 172,155.94 120.91,161.61 "/>
     </g>
     <g>
      <g>
       <path class="fil2" d="M125.35 115.35l78.08 0c8.4,0 15.21,-6.36 15.21,-14.2 0,-7.84 -6.81,-14.2 -15.21,-14.2l-78.08 0 0 28.39z"/>
       <path class="fil4" d="M125.87 111.14l76.01 0c5.9,0 10.69,-4.47 10.69,-9.98 0,-5.51 -4.79,-9.98 -10.69,-9.98l-76.01 0c-0.29,0 -0.52,0.22 -0.52,0.48l0 18.99c0,0.27 0.23,0.48 0.52,0.48z"/>
      </g>
      <polygon class="fil5" points="125.35,98.32 176.43,98.32 125.35,104 "/>
     </g>
     <g>
      <g>
       <path class="fil2" d="M109.81 141.54l-78.08 0c-8.4,0 -15.21,-6.36 -15.21,-14.19 0,-7.84 6.81,-14.2 15.21,-14.2l78.08 0 0 28.39z"/>
       <path class="fil4" d="M109.3 137.32l-76.01 0c-5.9,0 -10.69,-4.47 -10.69,-9.98 0,-5.51 4.79,-9.98 10.69,-9.98l76.01 0c0.29,0 0.52,0.22 0.52,0.48l0 18.99c0,0.27 -0.23,0.48 -0.52,0.48z"/>
      </g>
      <polygon class="fil5" points="109.81,124.51 58.73,124.51 109.81,130.18 "/>
     </g>
    </g>
    <g>
     <g>
      <path class="fil6" d="M88.26 74.01c0,0 -25.7,-9.18 -44.43,0.97 0,0 7.72,5.84 21.24,6.86 13.51,1.02 23.2,-7.84 23.2,-7.84z"/>
     </g>
     <g>
      <g>
       <g>
        <g>
         <g>
          <path class="fil1" d="M72.46 47.79l6.26 0.74c0,0 -1.65,44.7 -3.09,45.24 -1.44,0.54 -4.08,-0.48 -4.08,-0.48l0.91 -45.5z"/>
         </g>
        </g>
        <path class="fil2" d="M72.46 47.79c0,0 3.26,-9.34 4.06,-8.88 0.79,0.45 2.2,9.62 2.2,9.62l-6.26 -0.74z"/>
       </g>
      </g>
      <g>
       <path class="fil7" d="M51.21 43.66c0,0 6.36,51.27 7.74,51.95 1.38,0.68 9.34,0 9.34,0 0,0 -6.77,-51.1 -7.79,-51.95 -1.02,-0.85 -9.28,0 -9.28,0z"/>
       <line class="fil8 str0" x1="51.65" y1="47.15" x2="56.2" y2= "46.78" />
       <line class="fil8 str0" x1="54.37" y1="67.54" x2="58.92" y2= "67.17" />
       <line class="fil8 str0" x1="56.23" y1="80.3" x2="60.79" y2= "79.94" />
       <line class="fil8 str0" x1="52.14" y1="51.05" x2="54.92" y2= "51.05" />
       <line class="fil8 str0" x1="53.76" y1="61.52" x2="56.54" y2= "61.52" />
       <line class="fil8 str0" x1="55.38" y1="74.12" x2="58.16" y2= "74.12" />
       <line class="fil8 str0" x1="52.85" y1="56.5" x2="57.31" y2= "55.81" />
      </g>
      <g>
       <g>
        <path class="fil9" d="M42.72 54.9c-0.8,-0.51 11.49,35.63 11.49,35.63 0,0 28.86,-2.76 29.79,-3.99 0.94,-1.22 -40.48,-31.15 -41.28,-31.65zm17.27 30.33l0 0c-1.04,-0.47 -6.24,-16.05 -6.24,-16.05l20.29 14.17c0,0 -13.01,2.35 -14.05,1.88z"/>
       </g>
      </g>
     </g>
     <g>
      <g>
       <path class="fil10" d="M88.26 74.01c-0.04,1.77 -0.1,3.5 -0.16,5.18 -0.07,1.87 -0.16,3.68 -0.26,5.44 -0.12,2.05 -0.25,4.01 -0.42,5.89 -0.16,1.92 -0.34,3.75 -0.56,5.49 -0.26,2.14 -0.55,4.13 -0.88,5.99 -0.37,2.05 -0.77,3.91 -1.24,5.59 -0.66,2.43 -1.42,4.48 -2.28,6.1 -10.18,2.31 -20.29,2.24 -30.32,0 -0.49,-1.17 -0.95,-2.35 -1.4,-3.54 -0.2,-0.52 -0.39,-1.04 -0.57,-1.57 -0.67,-1.89 -1.29,-3.82 -1.85,-5.79 -0.58,-2 -1.1,-4.05 -1.57,-6.13 -0.44,-1.91 -0.83,-3.86 -1.17,-5.84 -0.34,-1.94 -0.63,-3.92 -0.88,-5.92 -0.24,-1.91 -0.45,-3.85 -0.6,-5.82 -0.11,-1.36 -0.21,-2.72 -0.28,-4.11 15.24,4.95 30.07,4.9 44.43,-0.97 0.01,-0.01 0.01,-0.01 0.01,-0.01z"/>
      </g>
      <g>
       <g>
        <path class="fil11" d="M88.1 79.19c-0.07,1.87 -0.16,3.68 -0.26,5.44 -10.1,1.85 -18.33,2.51 -24.92,2.51 -8.78,0 -14.66,-1.16 -18.2,-2.23 -0.24,-1.91 -0.45,-3.85 -0.6,-5.82 3.48,1.41 16.48,5.33 43.99,0.1z"/>
       </g>
       <g>
        <path class="fil11" d="M87.43 90.52c-0.16,1.92 -0.34,3.75 -0.56,5.49 -9.66,1.72 -17.57,2.34 -23.95,2.34 -7.27,0 -12.54,-0.8 -16.16,-1.68 -0.44,-1.91 -0.83,-3.86 -1.17,-5.84 4.95,1.6 17.75,4.17 41.83,-0.31z"/>
       </g>
       <g>
        <path class="fil11" d="M85.99 102c-0.37,2.05 -0.77,3.91 -1.24,5.59 -8.7,1.44 -15.92,1.97 -21.83,1.97 -5.24,0 -9.44,-0.41 -12.74,-0.97 -0.67,-1.89 -1.29,-3.82 -1.85,-5.79 6.12,1.42 18.01,2.69 37.66,-0.8z"/>
       </g>
      </g>
     </g>
     <path class="fil12" d="M88.26 74.01c-0.44,19.02 -2.19,32.94 -5.79,39.69 -10.18,2.31 -20.29,2.24 -30.32,0 -0.49,-1.17 -0.95,-2.35 -1.4,-3.54 20.29,-1.26 37.24,-35.6 37.5,-36.14 0.01,-0.01 0.01,-0.01 0.01,-0.01z"/>
    </g>
   </g>
   <g>
    <g>
     <path class="fil13" d="M40.03 10.62l-1.5 -4.73 -1.5 4.73c-1.64,5.16 -5.2,9.49 -9.94,12.08l0 0 0 0c4.75,2.6 8.31,6.93 9.94,12.08l1.5 4.73 1.5 -4.73c1.64,-5.16 5.2,-9.49 9.94,-12.08 -4.75,-2.6 -8.31,-6.92 -9.94,-12.08z"/>
    </g>
    <g>
     <path class="fil13" d="M238.21 74.59l-0.82 -2.58 -0.82 2.58c-0.89,2.81 -2.83,5.17 -5.42,6.59l0 0 0 0c2.59,1.42 4.53,3.78 5.42,6.59l0.82 2.58 0.82 -2.58c0.89,-2.81 2.83,-5.17 5.42,-6.59 -2.59,-1.42 -4.53,-3.78 -5.42,-6.59z"/>
    </g>
    <g>
     <path class="fil14" d="M111.72 82.17l-0.68 -2.15 -0.68 2.15c-0.74,2.34 -2.36,4.3 -4.51,5.48l0 0 0 0c2.15,1.18 3.77,3.14 4.51,5.48l0.68 2.15 0.68 -2.15c0.74,-2.34 2.36,-4.3 4.51,-5.48 -2.15,-1.18 -3.77,-3.14 -4.51,-5.48z"/>
    </g>
    <g>
     <path class="fil13" d="M166.26 5.98l-1.74 -5.49 -1.74 5.49c-1.9,5.99 -6.03,11.01 -11.54,14.02l0 0 0 0c5.51,3.01 9.64,8.04 11.54,14.02l1.74 5.49 1.74 -5.49c1.9,-5.98 6.03,-11.01 11.54,-14.02l0 0 0 0c-5.51,-3.01 -9.64,-8.04 -11.54,-14.02z"/>
    </g>
    <g>
     <path class="fil13" d="M10 62.14l-1.16 -3.66 -1.16 3.66c-1.26,3.99 -4.02,7.33 -7.69,9.34l0 0 0 0c3.67,2.01 6.42,5.35 7.69,9.34l1.16 3.66 1.16 -3.66c1.26,-3.99 4.02,-7.33 7.68,-9.34 -3.67,-2.01 -6.42,-5.35 -7.68,-9.34z"/>
    </g>
    <g>
     <path class="fil13" d="M98.88 48.15l-0.7 -2.21 -0.7 2.21c-0.76,2.42 -2.43,4.44 -4.65,5.65l-0 0 0 0c2.22,1.22 3.89,3.24 4.65,5.65l0.7 2.21 0.7 -2.21c0.76,-2.41 2.43,-4.44 4.65,-5.65 -2.22,-1.22 -3.89,-3.24 -4.65,-5.65z"/>
    </g>
   </g>
  </g>
 </g>
</svg>
