<?xml version="1.0" encoding="UTF-8" standalone="no"?>
<!-- Creator: CorelDRAW 2018 (64-Bit) -->

<svg
   xml:space="preserve"
   width="118.304mm"
   height="47.4014mm"
   version="1.1"
   style="shape-rendering:geometricPrecision; text-rendering:geometricPrecision; image-rendering:optimizeQuality; fill-rule:evenodd; clip-rule:evenodd"
   viewBox="0 0 11479.47 4599.55"
   id="svg582"
   sodipodi:docname="illustration_hero_header.svg"
   inkscape:export-filename="illustration_hero_header.png"
   inkscape:export-xdpi="515.49738"
   inkscape:export-ydpi="515.49738"
   inkscape:version="1.2 (dc2aeda, 2022-05-15)"
   xmlns:inkscape="http://www.inkscape.org/namespaces/inkscape"
   xmlns:sodipodi="http://sodipodi.sourceforge.net/DTD/sodipodi-0.dtd"
   xmlns="http://www.w3.org/2000/svg"
   xmlns:svg="http://www.w3.org/2000/svg"><sodipodi:namedview
   id="namedview584"
   pagecolor="#ffffff"
   bordercolor="#000000"
   borderopacity="0.25"
   inkscape:showpageshadow="2"
   inkscape:pageopacity="0.0"
   inkscape:pagecheckerboard="0"
   inkscape:deskcolor="#d1d1d1"
   inkscape:document-units="mm"
   showgrid="false"
   inkscape:zoom="1.3172958"
   inkscape:cx="223.94363"
   inkscape:cy="91.095714"
   inkscape:window-width="1343"
   inkscape:window-height="646"
   inkscape:window-x="197"
   inkscape:window-y="258"
   inkscape:window-maximized="0"
   inkscape:current-layer="Warstwa_x0020_1" />
 <defs
   id="defs4">
  <style
   type="text/css"
   id="style2">
   <![CDATA[
    .fil14 {fill:#1C1D1D;fill-rule:nonzero}
    .fil6 {fill:#262F44;fill-rule:nonzero}
    .fil16 {fill:#490E2F;fill-rule:nonzero}
    .fil24 {fill:#50698C;fill-rule:nonzero}
    .fil17 {fill:#562A2A;fill-rule:nonzero}
    .fil18 {fill:#673434;fill-rule:nonzero}
    .fil22 {fill:#70380C;fill-rule:nonzero}
    .fil19 {fill:#875652;fill-rule:nonzero}
    .fil21 {fill:#9C5213;fill-rule:nonzero}
    .fil11 {fill:#B34B56;fill-rule:nonzero}
    .fil10 {fill:#BC701C;fill-rule:nonzero}
    .fil29 {fill:#BD701C;fill-rule:nonzero}
    .fil13 {fill:#CA806D;fill-rule:nonzero}
    .fil15 {fill:#DB5B67;fill-rule:nonzero}
    .fil26 {fill:#DDCFB8;fill-rule:nonzero}
    .fil9 {fill:#E27C6E;fill-rule:nonzero}
    .fil8 {fill:#E69E80;fill-rule:nonzero}
    .fil23 {fill:#EBDFCA;fill-rule:nonzero}
    .fil12 {fill:#EDC88C;fill-rule:nonzero}
    .fil25 {fill:#EDE2DA;fill-rule:nonzero}
    .fil7 {fill:#F6E9D6;fill-rule:nonzero}
    .fil28 {fill:#F9EBD8;fill-rule:nonzero}
    .fil20 {fill:#F9EFE6;fill-rule:nonzero}
    .fil0 {fill:#151516;fill-rule:nonzero;fill-opacity:0.211765}
    .fil3 {fill:#151A23;fill-rule:nonzero;fill-opacity:0.600000}
    .fil1 {fill:#283142;fill-rule:nonzero;fill-opacity:0.600000}
    .fil2 {fill:#344156;fill-rule:nonzero;fill-opacity:0.600000}
    .fil5 {fill:#445670;fill-rule:nonzero;fill-opacity:0.600000}
    .fil4 {fill:#50698E;fill-rule:nonzero;fill-opacity:0.600000}
    .fil27 {fill:#16130F;fill-rule:nonzero;fill-opacity:0.741176}
   ]]>
  </style>
 </defs>
 <g
   id="Warstwa_x0020_1"
   inkscape:label="Warstwa 1">
  <metadata
   id="CorelCorpID_0Corel-Layer" />
  <g
   id="_3098008809952">
   <path
   class="fil0"
   d="M2075.96 4599.55c-130.1,-95.5 -235.82,-209.58 -308.42,-334.56 -48.68,-83.8 -83.13,-172.65 -145.16,-251.34 -142.01,-180.19 -432.79,-288.38 -711.09,-264.65 -160.47,13.7 -326.26,66.5 -477.19,23.59 -193.07,-54.9 -255.41,-234.29 -267.63,-388.19 -12.23,-153.92 -10.21,-325.91 -153,-437.34 -4.22,-3.31 -8.71,-6.62 -13.46,-9.97l0 1662.46 2075.96 0z"
   id="path7" />
  </g>
  <g
   id="_3098008811168">
   <g
   id="g158">
    <g
   id="g12">
     <polygon
   class="fil1"
   points="11113.85,4599.55 11113.85,189.42 6458.76,189.42 6458.76,4599.55 "
   id="polygon10" />
    </g>
    <g
   id="g16">
     <polygon
   class="fil2"
   points="10877.74,4599.55 10877.74,430.54 6694.87,430.54 6694.87,4599.55 "
   id="polygon14" />
    </g>
    <g
   id="g86">
     <g
   id="g20">
      <polygon
   class="fil1"
   points="10887.98,1998.98 6694.87,1998.98 6694.87,1758.7 10887.98,1758.7 "
   id="polygon18" />
     </g>
     <g
   id="g52">
      <g
   id="g30">
       <g
   id="g24">
        <path
   class="fil3"
   d="M8200.57 1751.11l-1002.3 0c-107.8,0 -195.18,-81.58 -195.18,-182.2 0,-100.63 87.38,-182.2 195.18,-182.2l1002.3 0 0 364.4z"
   id="path22" />
       </g>
       <g
   id="g28">
        <path
   class="fil1"
   d="M8193.94 1697.01l-975.72 0c-75.78,0 -137.23,-57.36 -137.23,-128.09 0,-70.75 61.44,-128.09 137.23,-128.09l975.72 0c3.67,0 6.64,2.77 6.64,6.19l0 243.8c0,3.43 -2.97,6.2 -6.64,6.2z"
   id="path26" />
       </g>
      </g>
      <g
   id="g40">
       <g
   id="g34">
        <path
   class="fil4"
   d="M8030.03 1386.71l-1142.07 0c-30.6,0 -55.42,-24.82 -55.42,-55.43l0 -253.57c0,-30.6 24.81,-55.42 55.42,-55.42l1142.07 0 0 364.41z"
   id="path32" />
       </g>
       <g
   id="g38">
        <path
   class="fil3"
   d="M8028.14 1332.6l-1078.74 0c-21.52,0 -38.97,-17.45 -38.97,-38.96l0 -178.26c0,-21.52 17.45,-38.97 38.97,-38.97l1078.74 0c1.04,0 1.88,0.84 1.88,1.88l0 252.42c0,1.04 -0.84,1.88 -1.88,1.88z"
   id="path36" />
       </g>
      </g>
      <g
   id="g50">
       <g
   id="g44">
        <path
   class="fil4"
   d="M8156.77 1022.3l-1002.3 0c-107.8,0 -195.18,-81.58 -195.18,-182.21 0,-100.62 87.39,-182.2 195.18,-182.2l1002.3 0 0 364.41z"
   id="path42" />
       </g>
       <g
   id="g48">
        <path
   class="fil5"
   d="M8150.14 968.2l-975.73 0c-75.78,0 -137.22,-57.36 -137.22,-128.1 0,-70.74 61.43,-128.08 137.22,-128.08l975.73 0c3.66,0 6.63,2.77 6.63,6.19l0 243.8c0,3.43 -2.97,6.2 -6.63,6.2z"
   id="path46" />
       </g>
      </g>
     </g>
     <g
   id="g84">
      <g
   id="g62">
       <g
   id="g56">
        <path
   class="fil3"
   d="M9387.84 1751.11l1002.3 0c107.8,0 195.18,-81.58 195.18,-182.2 0,-100.63 -87.38,-182.2 -195.18,-182.2l-1002.3 0 0 364.4z"
   id="path54" />
       </g>
       <g
   id="g60">
        <path
   class="fil1"
   d="M9394.48 1697.01l975.72 0c75.78,0 137.22,-57.36 137.22,-128.09 0,-70.75 -61.43,-128.09 -137.22,-128.09l-975.72 0c-3.67,0 -6.64,2.77 -6.64,6.19l0 243.8c0,3.43 2.97,6.2 6.64,6.2z"
   id="path58" />
       </g>
      </g>
      <g
   id="g72">
       <g
   id="g66">
        <path
   class="fil4"
   d="M9558.39 1386.71l1142.06 0c30.61,0 55.43,-24.82 55.43,-55.43l0 -253.57c0,-30.6 -24.81,-55.42 -55.43,-55.42l-1142.06 0 0 364.41z"
   id="path64" />
       </g>
       <g
   id="g70">
        <path
   class="fil3"
   d="M9560.27 1332.6l1078.74 0c21.51,0 38.96,-17.45 38.96,-38.96l0 -178.26c0,-21.52 -17.45,-38.97 -38.96,-38.97l-1078.74 0c-1.04,0 -1.88,0.84 -1.88,1.88l0 252.42c0,1.04 0.84,1.88 1.88,1.88z"
   id="path68" />
       </g>
      </g>
      <g
   id="g82">
       <g
   id="g76">
        <path
   class="fil4"
   d="M9431.63 1022.3l1002.31 0c107.8,0 195.18,-81.58 195.18,-182.21 0,-100.62 -87.39,-182.2 -195.18,-182.2l-1002.31 0 0 364.41z"
   id="path74" />
       </g>
       <g
   id="g80">
        <path
   class="fil5"
   d="M9438.27 968.2l975.73 0c75.78,0 137.22,-57.36 137.22,-128.1 0,-70.74 -61.43,-128.08 -137.22,-128.08l-975.73 0c-3.66,0 -6.64,2.77 -6.64,6.19l0 243.8c0,3.43 2.98,6.2 6.64,6.2z"
   id="path78" />
       </g>
      </g>
     </g>
    </g>
    <g
   id="g156">
     <g
   id="g90">
      <polygon
   class="fil1"
   points="10887.98,3906.41 6694.87,3906.41 6694.87,3666.14 10887.98,3666.14 "
   id="polygon88" />
     </g>
     <g
   id="g122">
      <g
   id="g100">
       <g
   id="g94">
        <path
   class="fil3"
   d="M8200.57 3658.55l-1002.3 0c-107.8,0 -195.18,-81.58 -195.18,-182.21 0,-100.62 87.38,-182.2 195.18,-182.2l1002.3 0 0 364.41z"
   id="path92" />
       </g>
       <g
   id="g98">
        <path
   class="fil1"
   d="M8193.94 3604.43l-975.72 0c-75.78,0 -137.23,-57.35 -137.23,-128.09 0,-70.75 61.44,-128.09 137.23,-128.09l975.72 0c3.67,0 6.64,2.78 6.64,6.19l0 243.81c0,3.42 -2.97,6.19 -6.64,6.19z"
   id="path96" />
       </g>
      </g>
      <g
   id="g110">
       <g
   id="g104">
        <path
   class="fil4"
   d="M8030.03 3294.14l-1015.29 0c-100.62,0 -182.2,-81.58 -182.2,-182.2 0,-100.63 81.58,-182.21 182.2,-182.21l1015.29 0 0 364.41z"
   id="path102" />
       </g>
       <g
   id="g108">
        <path
   class="fil3"
   d="M8023.83 3240.03l-985.3 0c-70.74,0 -128.09,-57.36 -128.09,-128.09 0,-70.75 57.36,-128.09 128.1,-128.09l985.29 0c3.42,0 6.19,2.77 6.19,6.19l0 243.81c0,3.42 -2.78,6.19 -6.19,6.19z"
   id="path106" />
       </g>
      </g>
      <g
   id="g120">
       <g
   id="g114">
        <path
   class="fil4"
   d="M8156.77 2929.73l-1002.3 0c-107.8,0 -195.18,-81.57 -195.18,-182.2 0,-100.62 87.39,-182.2 195.18,-182.2l1002.3 0 0 364.4z"
   id="path112" />
       </g>
       <g
   id="g118">
        <path
   class="fil5"
   d="M8150.14 2875.62l-975.73 0c-75.78,0 -137.22,-57.35 -137.22,-128.09 0,-70.75 61.43,-128.09 137.22,-128.09l975.73 0c3.66,0 6.63,2.78 6.63,6.19l0 243.81c0,3.42 -2.97,6.19 -6.63,6.19z"
   id="path116" />
       </g>
      </g>
     </g>
     <g
   id="g154">
      <g
   id="g132">
       <g
   id="g126">
        <path
   class="fil3"
   d="M9387.84 3658.55l1002.3 0c107.8,0 195.18,-81.58 195.18,-182.21 0,-100.62 -87.38,-182.2 -195.18,-182.2l-1002.3 0 0 364.41z"
   id="path124" />
       </g>
       <g
   id="g130">
        <path
   class="fil1"
   d="M9394.48 3604.43l975.72 0c75.78,0 137.22,-57.35 137.22,-128.09 0,-70.75 -61.43,-128.09 -137.22,-128.09l-975.72 0c-3.67,0 -6.64,2.78 -6.64,6.19l0 243.81c0,3.42 2.97,6.19 6.64,6.19z"
   id="path128" />
       </g>
      </g>
      <g
   id="g142">
       <g
   id="g136">
        <path
   class="fil4"
   d="M9558.39 3294.14l1015.29 0c100.62,0 182.2,-81.58 182.2,-182.2 0,-100.63 -81.58,-182.21 -182.2,-182.21l-1015.29 0 0 364.41z"
   id="path134" />
       </g>
       <g
   id="g140">
        <path
   class="fil3"
   d="M9564.58 3240.03l985.29 0c70.75,0 128.09,-57.36 128.09,-128.09 0,-70.75 -57.35,-128.09 -128.09,-128.09l-985.29 0c-3.42,0 -6.19,2.77 -6.19,6.19l0 243.81c0,3.42 2.78,6.19 6.19,6.19z"
   id="path138" />
       </g>
      </g>
      <g
   id="g152">
       <g
   id="g146">
        <path
   class="fil4"
   d="M9431.63 2929.73l1002.31 0c107.8,0 195.18,-81.57 195.18,-182.2 0,-100.62 -87.39,-182.2 -195.18,-182.2l-1002.31 0 0 364.4z"
   id="path144" />
       </g>
       <g
   id="g150">
        <path
   class="fil5"
   d="M9438.27 2875.62l975.73 0c75.78,0 137.22,-57.35 137.22,-128.09 0,-70.75 -61.43,-128.09 -137.22,-128.09l-975.73 0c-3.66,0 -6.64,2.78 -6.64,6.19l0 243.81c0,3.42 2.98,6.19 6.64,6.19z"
   id="path148" />
       </g>
      </g>
     </g>
    </g>
   </g>
   <g
   id="g544">
    <g
   id="g162">
     <path
   class="fil6"
   d="M9921.41 4338.34c-0.77,2.06 -1.54,4.11 -2.32,5.92 -14.42,31.18 -80.64,68.81 -174.7,107.46 -128.76,52.89 -309.13,107.15 -477.45,147.83l-922.5 0c-195.61,-38.75 -369.29,-88.19 -393.79,-131.08 -2.83,-4.9 -5.15,-10.56 -6.44,-16.75 -7.47,-27.83 -2.83,-67.25 7.22,-109.51 0.25,-1.29 0.51,-2.58 1.03,-3.86 23.19,-92.77 72.93,-198.94 88.13,-229.6 2.58,-5.67 4.12,-8.76 4.12,-8.76 -2.57,-32.21 -5.15,-67.25 -7.47,-104.62 -4.64,-69.06 -9.28,-146.37 -13.65,-229.59l0 -2.06c-1.8,-36.09 -3.61,-73.18 -5.42,-111.07 -3.35,-73.95 -6.7,-151 -9.79,-229.59 -1.54,-37.37 -3.09,-75.25 -4.38,-113.38 -1.54,-39.95 -3.1,-80.4 -4.38,-120.59l0 -0.26c-1.29,-36.33 -2.32,-72.67 -3.61,-108.75 -1.03,-37.87 -2.32,-75.75 -3.1,-113.37 -2.32,-78.34 -4.38,-155.39 -5.93,-229.6 -0.77,-38.65 -1.54,-76.27 -2.06,-113.12 -1.54,-82.2 -2.58,-159.5 -2.83,-229.59 -0.26,-40.46 -0.26,-78.34 0,-113.38l0 -11.6c0.77,-115.69 -23.45,-176.25 -21.12,-205.62 0.5,-3.36 0.77,-5.16 0.77,-5.16l0.51 -0.25 353.03 -143.02c15.98,-4.38 31.18,-8.25 45.35,-11.08 11.08,-2.57 21.12,-4.38 30.92,-5.93l797.01 -31.69c0,0 133.74,45.09 187.34,66.74 107.45,43.29 235.26,98.18 240.16,106.43 0.51,0.77 11.85,94.57 28.86,241.19 3.87,34.79 8.25,72.92 12.89,113.38 7.99,70.09 16.49,147.65 25.51,229.59 3.86,36.85 7.99,74.73 12.11,113.12 7.73,74.73 15.72,152.03 23.96,229.6 3.62,37.62 7.48,75.5 11.34,113.37 7.47,77.57 14.94,154.61 21.65,229.6 3.61,38.39 6.96,76.27 10.31,113.38 6.96,81.68 13.14,159.24 18.04,229.59 2.83,40.2 5.15,78.07 6.96,113.12 5.15,90.96 6.96,163.11 4.12,206.92 3.35,5.93 7.47,13.66 12.36,22.68 14.95,27.57 36.09,68.54 56.43,113.38 38.92,85.03 74.99,183.47 60.81,229.6z"
   id="path160" />
    </g>
    <g
   id="g192">
     <g
   id="g166">
      <path
   class="fil7"
   d="M9657.81 2394.37l-1675.72 0c-0.26,-40.46 -0.26,-78.34 0,-113.38l1662.83 0c3.87,34.79 8.25,72.92 12.89,113.38z"
   id="path164" />
     </g>
     <g
   id="g170">
      <path
   class="fil7"
   d="M9695.43 2737.09l-1708.45 0c-0.77,-38.65 -1.54,-76.27 -2.06,-113.12l1698.39 0c3.86,36.85 7.99,74.73 12.11,113.12z"
   id="path168" />
     </g>
     <g
   id="g174">
      <path
   class="fil7"
   d="M9730.73 3080.06l-1734.72 0c-1.03,-37.87 -2.32,-75.75 -3.1,-113.37l1726.48 0c3.62,37.62 7.48,75.5 11.34,113.37z"
   id="path172" />
     </g>
     <g
   id="g178">
      <path
   class="fil7"
   d="M9762.68 3423.05l-1754.32 0c-1.54,-37.37 -3.09,-75.25 -4.38,-113.38l1748.39 0c3.61,38.39 6.96,76.27 10.31,113.38z"
   id="path176" />
     </g>
     <g
   id="g182">
      <path
   class="fil7"
   d="M8023.58 3765.76l0 -2.06c-1.8,-36.09 -3.61,-73.18 -5.42,-111.07l1762.56 0c2.83,40.2 5.15,78.07 6.96,113.12l-1764.1 0z"
   id="path180" />
     </g>
     <g
   id="g186">
      <path
   class="fil7"
   d="M8040.58 4108.74c2.58,-5.67 4.12,-8.76 4.12,-8.76 -2.57,-32.21 -5.15,-67.25 -7.47,-104.62l1766.93 0c14.95,27.57 36.09,68.54 56.43,113.38l-1820.02 0z"
   id="path184" />
     </g>
     <g
   id="g190">
      <path
   class="fil7"
   d="M9921.41 4338.34c-0.77,2.06 -1.54,4.11 -2.32,5.92 -14.42,31.18 -80.64,68.81 -174.7,107.46l-1800.18 0c-7.47,-27.83 -2.83,-67.25 7.22,-109.51 0.25,-1.29 0.51,-2.58 1.03,-3.86l1968.95 0z"
   id="path188" />
     </g>
    </g>
    <g
   id="g196">
     <path
   class="fil8"
   d="M9375.91 1933.28c-116.38,115.88 -304.63,249.97 -551.31,249.97 -259.85,0 -421.52,-148.52 -509.31,-267.94 6.58,-1.77 40.73,-15.68 85.77,-34.15 63.51,-26.32 148.77,-62.25 209.75,-87.81l457.95 -19.22c0,0 108.54,58.95 198.61,105.51 47.57,24.79 90.08,46.05 108.54,53.64z"
   id="path194" />
    </g>
    <g
   id="g206">
     <g
   id="g200">
      <polygon
   class="fil8"
   points="9068.75,1774.13 8824.6,1941.62 8610.8,1793.35 8632.56,1649.65 8656.6,1490.75 9013.85,1474.82 9041.43,1625.36 "
   id="polygon198" />
     </g>
     <g
   id="g204">
      <path
   class="fil9"
   d="M9041.43 1625.36c-55.41,23.78 -130.3,51.86 -197.1,63.76 -60.72,10.88 -142.95,-12.4 -211.78,-39.47l24.05 -158.89 357.25 -15.93 27.58 150.54z"
   id="path202" />
     </g>
    </g>
    <g
   id="g210">
     <path
   class="fil7"
   d="M9375.91 1933.28c-116.38,115.88 -304.63,249.97 -551.31,249.97 -259.85,0 -421.52,-148.52 -509.31,-267.94 6.58,-1.77 40.73,-15.68 85.77,-34.15 78.19,75.65 280.85,251.23 461.49,230.99 164.71,-18.47 326.9,-156.36 404.82,-232.51 47.57,24.79 90.08,46.05 108.54,53.64z"
   id="path208" />
    </g>
    <g
   id="g214">
     <path
   class="fil10"
   d="M7637.93 4599.55c70.17,-841.74 307.66,-2433.64 323.04,-2535.78 0.5,-3.36 0.77,-5.16 0.77,-5.16l0.51 -0.25 353.03 -143.02c0,0 80.07,1779.66 34.84,2684.21l-712.18 0z"
   id="path212" />
    </g>
    <g
   id="g218">
     <path
   class="fil10"
   d="M9375.91 1933.28c0,0 32.02,1787.66 134.64,2666.27l726.65 0c-90.4,-660.63 -399.61,-2467.48 -523.27,-2541.04 -100.41,-59.73 -338.02,-125.23 -338.02,-125.23z"
   id="path216" />
    </g>
    <g
   id="g370">
     <g
   id="g334">
      <g
   id="g234">
       <g
   id="g222">
        <path
   class="fil8"
   d="M8473.97 1255.21c-84.74,-7.43 -146.02,-58.3 -178.69,-100.71 -7.35,-9.57 -13.24,-18.71 -17.63,-26.81 -23.82,-44.14 -29.42,-196.52 33.25,-231.37 43.92,-24.37 75.4,11.86 90.3,35.78 0,0.04 0,0.08 0,0.08 6.36,10.17 9.72,18.1 9.72,18.1l63.04 304.94z"
   id="path220" />
       </g>
       <g
   id="g226">
        <path
   class="fil9"
   d="M8290.14 1017.14c-3.24,12.16 -1.38,24.86 2.52,36.92 16.58,51.27 67.28,90.74 115.83,127.39 -14.51,-24.92 -19.68,-52.96 -16.42,-80.19 1.14,-9.48 3.26,-18.9 3.44,-28.41 0.72,-38.33 -86.25,-127.56 -105.37,-55.71z"
   id="path224" />
       </g>
       <g
   id="g232">
        <g
   id="g230">
         <path
   class="fil11"
   d="M8432.91 1196.21c0,0 -0.95,-0.54 -2.77,-1.59 -1.76,-1.1 -4.6,-2.53 -7.83,-4.77 -6.51,-4.43 -15.49,-11.52 -23.92,-22 -8.38,-10.43 -15.96,-24.34 -19.47,-40.76 -3.15,-16.35 -2.3,-35.38 6.64,-53.64 0.95,-2.32 2.28,-4.51 3.62,-6.68l0.98 -1.63c0.25,-0.41 0.11,-0.15 0.14,-0.19l-0.02 0.06 0.05 -0.03 0.01 0c0,0 0.06,0.09 -0.14,-0.26l-0.79 -1.48 -1.62 -2.92c-1.12,-1.93 -2.2,-3.85 -3.36,-5.72 -4.55,-7.53 -9.48,-14.61 -14.55,-21.19 -5.07,-6.58 -10.33,-12.64 -15.54,-18.18 -5.26,-5.51 -10.3,-10.68 -15.33,-14.53 -5.02,-3.87 -10.56,-6.4 -15.75,-7.13 -5.22,-0.63 -10.15,0.5 -13.49,2.12 -3.39,1.65 -5.26,3.78 -6.05,5.38 -0.83,1.6 -0.8,2.57 -0.88,2.56 0,0 -0.24,-0.93 0.17,-2.73 0.36,-1.78 1.73,-4.44 5.1,-6.91 3.35,-2.38 8.58,-4.6 15.48,-4.72 6.9,0 14.3,2.38 20.9,6.18 6.67,3.82 12.62,8.59 18.91,13.81 6.23,5.27 12.56,11.2 18.62,17.8 6.05,6.6 11.9,13.84 17.18,21.7 1.35,1.95 2.6,3.97 3.87,5.99l1.85 3.08 2.45 4.36 1.7 3.05c-0.46,1.01 -1.15,2.01 -1.72,3.02l-2.52 4.32c-1.14,1.88 -2.28,3.77 -3.1,5.8 -7.77,15.84 -9.62,32.47 -8.33,47.41 1.64,14.96 6.55,28.3 12.59,38.88 6.05,10.61 13,18.51 18.23,23.73 2.58,2.63 4.94,4.44 6.38,5.81 1.48,1.33 2.27,2.03 2.27,2.03z"
   id="path228" />
        </g>
       </g>
      </g>
      <g
   id="g250">
       <g
   id="g238">
        <path
   class="fil8"
   d="M9181.33 1255.21c84.74,-7.43 146.03,-58.3 178.7,-100.71 7.35,-9.57 13.24,-18.71 17.63,-26.81 23.82,-44.14 29.42,-196.52 -33.25,-231.37 -43.93,-24.37 -75.41,11.86 -90.31,35.78 0,0.04 0,0.08 0,0.08 -6.36,10.17 -9.71,18.1 -9.71,18.1l-63.05 304.94z"
   id="path236" />
       </g>
       <g
   id="g242">
        <path
   class="fil9"
   d="M9365.16 1017.14c3.23,12.16 1.37,24.86 -2.53,36.92 -16.57,51.27 -67.27,90.74 -115.82,127.39 14.51,-24.92 19.68,-52.96 16.42,-80.19 -1.14,-9.48 -3.27,-18.9 -3.44,-28.41 -0.71,-38.33 86.26,-127.56 105.38,-55.71z"
   id="path240" />
       </g>
       <g
   id="g248">
        <g
   id="g246">
         <path
   class="fil11"
   d="M9222.4 1196.21c0,0 0.95,-0.54 2.76,-1.59 1.77,-1.1 4.61,-2.53 7.84,-4.77 6.5,-4.43 15.49,-11.52 23.91,-22 8.39,-10.43 15.96,-24.34 19.47,-40.76 3.15,-16.35 2.3,-35.38 -6.65,-53.64 -0.95,-2.32 -2.27,-4.51 -3.61,-6.68l-0.99 -1.63c-0.24,-0.41 -0.1,-0.15 -0.14,-0.19l0.03 0.06 -0.05 -0.03 -0.02 0c0,0 -0.05,0.09 0.14,-0.26l0.8 -1.48 1.62 -2.92c1.11,-1.93 2.19,-3.85 3.36,-5.72 4.55,-7.53 9.47,-14.61 14.54,-21.19 5.07,-6.58 10.33,-12.64 15.54,-18.18 5.26,-5.51 10.31,-10.68 15.33,-14.53 5.03,-3.87 10.56,-6.4 15.76,-7.13 5.22,-0.63 10.15,0.5 13.49,2.12 3.38,1.65 5.26,3.78 6.04,5.38 0.84,1.6 0.8,2.57 0.88,2.56 0,0 0.25,-0.93 -0.17,-2.73 -0.35,-1.78 -1.73,-4.44 -5.09,-6.91 -3.35,-2.38 -8.58,-4.6 -15.49,-4.72 -6.89,0 -14.3,2.38 -20.9,6.18 -6.66,3.82 -12.61,8.59 -18.9,13.81 -6.24,5.27 -12.56,11.2 -18.62,17.8 -6.05,6.6 -11.9,13.84 -17.18,21.7 -1.34,1.95 -2.6,3.97 -3.87,5.99l-1.84 3.08 -2.45 4.36 -1.69 3.05c0.45,1.01 1.15,2.01 1.71,3.02l2.52 4.32c1.14,1.88 2.29,3.77 3.11,5.8 7.76,15.84 9.61,32.47 8.32,47.41 -1.64,14.96 -6.54,28.3 -12.58,38.88 -6.05,10.61 -13.01,18.51 -18.23,23.73 -2.59,2.63 -4.95,4.44 -6.38,5.81 -1.49,1.33 -2.27,2.03 -2.27,2.03z"
   id="path244" />
        </g>
       </g>
      </g>
      <g
   id="g332">
       <g
   id="g330">
        <g
   id="g328">
         <g
   id="g260">
          <g
   id="g254">
           <path
   class="fil8"
   d="M9225.22 1064.83c0,0 -68.82,349.92 -146.32,436.4 -77.33,86.48 -257.5,102.84 -257.5,102.84 0,0 -180.02,-16.36 -257.34,-102.84 -77.49,-86.48 -135.58,-437.36 -135.58,-437.36 -9.78,-28.72 -15.72,-64.81 -19.09,-102.04l0 -0.64c-8.83,-97.7 -0.49,-203.43 -0.49,-203.43 0,0 4.01,-203.29 102.53,-289.75 42.19,-37.07 105.08,-42.36 163.32,-36.26 97.71,10.11 195.74,10.11 293.45,0 58.24,-6.09 121.13,-0.81 163.33,36.26 49.57,43.47 75.24,116.63 88.4,178.41 13.16,61.13 14.13,111.35 14.13,111.35 0,0 26.63,203.28 -8.84,307.07z"
   id="path252" />
          </g>
          <g
   id="g258">
           <path
   class="fil12"
   d="M9073.54 1465.85c-98.01,166.28 -383.44,128.47 -494.13,17.79 -174.06,-264.85 -165.51,-629.7 -105.68,-970.78 -61.9,97.13 -64.82,244.84 -64.82,244.84 0,0 -15.94,202.24 19.62,306.15 0,0 58.1,350.89 135.5,437.34 77.4,86.44 257.45,102.9 257.45,102.9 0,0 180.05,-16.47 257.44,-102.9 77.4,-86.45 146.24,-436.31 146.24,-436.31 24.42,-71.4 19.48,-189.68 14,-256.72 -19.85,218.38 -32.78,432.37 -165.63,657.7z"
   id="path256" />
          </g>
         </g>
         <g
   id="g326">
          <g
   id="g274">
           <g
   id="g272">
            <g
   id="g270">
             <g
   id="g264">
              <path
   class="fil13"
   d="M8600.21 1145.64c-6.83,18.26 -56.97,16.37 -111.99,-4.22 -55.02,-20.6 -94.07,-52.1 -87.23,-70.36 6.84,-18.26 56.98,-16.37 111.99,4.23 55.01,20.59 94.07,52.09 87.23,70.35z"
   id="path262" />
             </g>
             <g
   id="g268">
              <path
   class="fil9"
   d="M9265.51 1067.46c7.49,18 -30.39,50.89 -84.62,73.48 -54.22,22.58 -104.26,26.3 -111.76,8.3 -7.49,-18 30.39,-50.9 84.62,-73.48 54.23,-22.58 104.26,-26.3 111.76,-8.3z"
   id="path266" />
             </g>
            </g>
           </g>
          </g>
          <g
   id="g290">
           <g
   id="g288">
            <g
   id="g278">
             <path
   class="fil14"
   d="M8563.88 953.44c0.95,43.75 23.8,78.74 51.05,78.15 27.24,-0.59 48.56,-36.54 47.61,-80.29 -0.95,-43.75 -23.8,-78.74 -51.05,-78.15 -27.25,0.59 -48.57,36.53 -47.61,80.29z"
   id="path276" />
            </g>
            <g
   id="g282">
             <path
   class="fil14"
   d="M9145.64 942.54c-28.17,-26.57 -69.18,-38.84 -107.31,-32.12 -38.12,6.72 -72.46,32.29 -89.84,66.9 14.32,-11.42 33.69,-19.02 51.13,-24.67 48.22,-15.61 98.76,-28.41 146.03,-10.11z"
   id="path280" />
            </g>
            <g
   id="g286">
             <path
   class="fil7"
   d="M8515.81 910.24c0,0 17.93,26.84 48.26,38.36 30.32,11.51 61.56,3.35 61.56,3.35 0,0 -17.94,-26.83 -48.26,-38.35 -30.33,-11.52 -61.56,-3.36 -61.56,-3.36z"
   id="path284" />
            </g>
           </g>
          </g>
          <g
   id="g300">
           <g
   id="g294">
            <path
   class="fil9"
   d="M8915.19 1107.36c-46.92,36.74 -116.03,42.31 -168.24,13.57 8.21,40.45 48.25,73.66 89.41,70.6 41.16,-3.07 76.69,-42.95 78.83,-84.17z"
   id="path292" />
           </g>
           <g
   id="g298">
            <path
   class="fil15"
   d="M8823.84 1180.65c-11.25,-2.06 -24.46,-6.28 -36.95,-13.59 -12.5,-7.32 -23.3,-17.95 -26.13,-31.08 -3.17,-12.87 3.32,-23.87 14.57,-32.04 7.7,-5.42 16.37,-8.17 24.81,-9.34 3.59,-0.5 6.82,-0.74 9.99,-0.66 0.2,-4.12 0.13,-8.61 0.14,-13.72 -0.5,-21.47 -2.96,-50.22 -10.17,-81.8 -13.72,-61.15 -40,-106.31 -43.18,-111.5 0.2,6.09 3.94,57.69 17.54,117.23 6.29,28.6 13.95,54.15 20.38,74.13 -9.5,-0.55 -19.94,1.01 -30.51,6.39 -8.86,4.31 -17.34,10.92 -23.72,20.98 -6.42,10.37 -8.43,23.86 -5.46,35.74 5.22,24.62 25.42,39.3 41.85,45.84 17.06,6.62 33.5,8.04 46.48,6.48 13.25,-1.21 23.28,-4.74 29.72,-7.76 4.76,-2.28 7.87,-4.12 9.25,-4.91 -2.94,0.58 -17.97,3.17 -38.61,-0.38z"
   id="path296" />
           </g>
          </g>
          <g
   id="g314">
           <g
   id="g308">
            <g
   id="g306">
             <g
   id="g304">
              <path
   class="fil16"
   d="M9170.91 796.18c0,0 -185.79,-149.32 -237.37,-75.03 -30.11,43.36 -0.05,63.76 -0.05,63.76l237.42 11.27z"
   id="path302" />
             </g>
            </g>
           </g>
           <g
   id="g312">
            <path
   class="fil16"
   d="M8477.65 812.6c0,0 172.37,-164.62 230.12,-95.01 33.7,40.64 5.49,63.52 5.49,63.52l-235.61 31.49z"
   id="path310" />
           </g>
          </g>
          <g
   id="g324">
           <g
   id="g318">
            <path
   class="fil11"
   d="M9025.25 1194.09c-19.1,58.09 -67.23,105.83 -125.47,124.45 -58.25,18.62 -125.14,7.65 -174.39,-28.61 29.3,16.79 65.04,20.45 98.62,16.72 33.56,-3.75 65.77,-15.6 96.15,-30.36 36.68,-17.83 86.83,-45.74 105.1,-82.2z"
   id="path316" />
           </g>
           <g
   id="g322">
            <path
   class="fil11"
   d="M8958.1 1331.47c-27.48,34.18 -75.46,50.41 -118.04,39.93 6.15,8.34 16.6,15.21 26.61,17.89 18.44,4.93 38.56,6.25 56.22,-0.95 21.09,-8.61 33.36,-34.18 35.21,-56.87z"
   id="path320" />
           </g>
          </g>
         </g>
        </g>
       </g>
      </g>
     </g>
     <g
   id="g348">
      <g
   id="g338">
       <path
   class="fil17"
   d="M9391.88 583.12c-2.83,7.72 -6.19,15.46 -10.05,22.93 -19.58,39.17 -50.24,72.68 -87.61,95.08l31.44 188.12 -83.75 84 -19.58 -224.96c-176.25,49.22 -424.15,-189.14 -424.15,-189.14 -15.2,130.91 -389.61,224.95 -389.61,224.95l14.95 193.01c-30.41,-67.77 -132.2,-63.91 -132.2,-63.91l-10.04 -33.75c-7.22,-24.74 -9.02,-50.77 -4.91,-76.03 -81.42,-30.66 -142.48,-108.48 -154.86,-194.29 -0.26,0 0,-0.25 0,-0.25 -0.78,-5.68 -1.54,-11.34 -1.8,-17.01 61.33,18.55 122.66,-34.8 149.7,-93.03 26.81,-57.98 35.05,-124.72 69.85,-178.58 50.51,-78.33 149.19,-114.67 242.22,-114.92 53.09,-0.26 114.93,15.98 134.26,65.2 46.38,-71.9 145.34,-105.15 229.34,-89.42 83.75,15.71 155.89,74.46 199.96,147.65 32.99,54.63 51.8,116.99 87.36,169.81 35.82,52.83 96.89,96.64 159.5,84.53z"
   id="path336" />
      </g>
      <g
   id="g342">
       <path
   class="fil18"
   d="M9391.88 583.12c-2.83,7.72 -6.19,15.46 -10.05,22.93 -67.77,30.66 -142.49,45.35 -216.71,40.72 -161.82,-10.31 -314.89,-112.86 -385.76,-258.71 -61.33,131.68 -166.46,249.44 -304.32,295.57 -120.34,39.94 -265.93,13.91 -353.54,-74.47 0,-0.25 0,-0.25 0,-0.25 -0.51,-3.1 -0.78,-6.19 -1.03,-9.29 -0.51,-2.57 -0.78,-5.15 -0.78,-7.72 61.33,18.55 122.66,-34.8 149.7,-93.03 26.81,-57.98 35.05,-124.72 69.85,-178.58 50.51,-78.33 149.19,-114.67 242.22,-114.92 53.09,-0.26 114.93,15.98 134.26,65.2 46.38,-71.9 145.34,-105.15 229.34,-89.42 83.75,15.71 155.89,74.46 199.96,147.65 32.99,54.63 51.8,116.99 87.36,169.81 6.96,10.31 14.69,20.11 23.71,29.38 35.82,38.4 85.29,64.94 135.8,55.14z"
   id="path340" />
      </g>
      <g
   id="g346">
       <path
   class="fil19"
   d="M9256.08 527.97c-65.71,7.73 -134.26,-0.51 -190.68,-34.27 -53.09,-31.44 -91.48,-82.72 -125.5,-134.26 -20.35,-30.92 -42.51,-64.94 -77.82,-76.53 -53.84,-17.78 -109.25,26.02 -138.63,74.74 -39.68,-26.55 -94.82,-18.81 -135.28,6.7 -40.45,25.25 -69.31,64.94 -96.63,104.1 -27.32,39.17 -54.88,79.37 -94.06,106.94 -78.07,54.88 -182.7,46.12 -277,24.22 -0.51,-2.57 -0.78,-5.15 -0.78,-7.72 61.33,18.55 122.66,-34.8 149.7,-93.03 26.81,-57.98 35.05,-124.72 69.85,-178.58 50.51,-78.33 149.19,-114.67 242.22,-114.92 53.09,-0.26 114.93,15.98 134.26,65.2 46.38,-71.9 145.34,-105.15 229.34,-89.42 83.75,15.71 155.89,74.46 199.96,147.65 32.99,54.63 51.8,116.99 87.36,169.81 6.96,10.31 14.69,20.11 23.71,29.38z"
   id="path344" />
      </g>
     </g>
     <g
   id="g368">
      <g
   id="g354">
       <g
   id="g352">
        <path
   class="fil20"
   d="M8575.42 1145.27c-106.35,0 -192.87,-86.53 -192.87,-192.9 0,-106.38 86.53,-192.9 192.87,-192.9 106.39,0 192.91,86.53 192.91,192.9 0,106.38 -86.53,192.9 -192.91,192.9zm0 -340.04l0 0c-81.11,0 -147.1,66.01 -147.1,147.13 0,81.12 65.99,147.12 147.1,147.12 81.13,0 147.13,-66 147.13,-147.12 0,-81.12 -66,-147.13 -147.13,-147.13z"
   id="path350" />
       </g>
      </g>
      <g
   id="g360">
       <g
   id="g358">
        <path
   class="fil20"
   d="M9073.55 1145.27c-106.38,0 -192.91,-86.53 -192.91,-192.9 0,-106.38 86.53,-192.9 192.91,-192.9 106.38,0 192.9,86.53 192.9,192.9 0,106.38 -86.53,192.9 -192.9,192.9zm0 -340.04l0 0c-81.12,0 -147.13,66.01 -147.13,147.13 0,81.12 66.01,147.12 147.13,147.12 81.12,0 147.12,-66 147.12,-147.12 0,-81.12 -66,-147.13 -147.12,-147.13z"
   id="path356" />
       </g>
      </g>
      <g
   id="g366">
       <g
   id="g364">
        <path
   class="fil20"
   d="M8759.18 970.7l-27.45 -36.66c35.87,-26.85 121.21,-61.04 187.54,1.7l-31.48 33.26c-55.07,-52.19 -125.66,-0.54 -128.61,1.7z"
   id="path362" />
       </g>
      </g>
     </g>
    </g>
    <g
   id="g470">
     <g
   id="g374">
      <path
   class="fil10"
   d="M7961.78 2058.51c0,0 -380.45,221.37 -395.48,301.27 -15.04,79.9 -189.55,1068.65 -189.55,1068.65l-450.05 -220.27 -321.46 329.54c0,0 728.98,633.96 892.61,663.48 163.64,29.52 397.15,-548.54 397.15,-548.54l66.79 -1594.13z"
   id="path372" />
     </g>
     <g
   id="g378">
      <path
   class="fil21"
   d="M7944.98 2337.67c0,0 -288.8,1596.16 -378.67,1798.89 0,0 150.89,-1181.41 378.67,-1798.89z"
   id="path376" />
     </g>
     <g
   id="g388">
      <g
   id="g382">
       <path
   class="fil22"
   d="M7959.54 3360.21l-1238.98 0c-133.25,0 -241.27,-100.84 -241.27,-225.23 0,-124.39 108.02,-225.23 241.27,-225.23l1238.98 0 0 450.45z"
   id="path380" />
      </g>
      <g
   id="g386">
       <path
   class="fil23"
   d="M7951.33 3293.32l-1206.12 0c-93.68,0 -169.62,-70.89 -169.62,-158.34 0,-87.45 75.94,-158.34 169.62,-158.34l1206.12 0c4.53,0 8.21,3.43 8.21,7.66l0 301.37c0,4.23 -3.68,7.66 -8.21,7.66z"
   id="path384" />
      </g>
     </g>
     <g
   id="g398">
      <g
   id="g392">
       <path
   class="fil24"
   d="M7617.43 2909.76l-1406.46 0c-40.74,0 -73.77,-33.03 -73.77,-73.77l0 -302.9c0,-40.74 33.03,-73.77 73.77,-73.77l1406.46 0 0 450.45z"
   id="path390" />
      </g>
      <g
   id="g396">
       <path
   class="fil23"
   d="M7614.92 2842.87l-1329.57 0c-28.64,0 -51.86,-23.22 -51.86,-51.86l0 -212.95c0,-28.64 23.22,-51.86 51.86,-51.86l1329.57 0c1.39,0 2.5,1.13 2.5,2.5l0 311.67c0,1.38 -1.12,2.5 -2.5,2.5z"
   id="path394" />
      </g>
     </g>
     <g
   id="g408">
      <g
   id="g402">
       <path
   class="fil25"
   d="M7905.39 2459.31l-1238.97 0c-133.25,0 -241.27,-100.84 -241.27,-225.23 0,-124.39 108.03,-225.23 241.27,-225.23l1238.97 0 0 450.45z"
   id="path400" />
      </g>
      <g
   id="g406">
       <path
   class="fil6"
   d="M7897.2 2392.42l-1206.12 0c-93.68,0 -169.62,-70.89 -169.62,-158.34 0,-87.45 75.94,-158.34 169.62,-158.34l1206.12 0c4.53,0 8.2,3.43 8.2,7.66l0 301.37c0,4.23 -3.67,7.66 -8.2,7.66z"
   id="path404" />
      </g>
     </g>
     <g
   id="g424">
      <g
   id="g418">
       <g
   id="g412">
        <path
   class="fil10"
   d="M6277.59 1552.69l1436.28 0c24.28,0 43.96,-19.68 43.96,-43.96l0 -362.54c0,-24.28 -19.68,-43.96 -43.96,-43.96l-1436.28 0 0 450.45z"
   id="path410" />
       </g>
       <g
   id="g416">
        <path
   class="fil23"
   d="M6280.1 1485.8l1329.57 0c28.64,0 51.86,-23.22 51.86,-51.86l0 -212.95c0,-28.64 -23.23,-51.86 -51.87,-51.86l-1329.56 0c-1.39,0 -2.5,1.13 -2.5,2.5l0 311.67c0,1.38 1.12,2.5 2.5,2.5z"
   id="path414" />
       </g>
      </g>
      <g
   id="g422">
       <polygon
   class="fil26"
   points="6277.59,1292.5 7477.03,1292.5 6277.59,1382.5 "
   id="polygon420" />
      </g>
     </g>
     <g
   id="g440">
      <g
   id="g434">
       <g
   id="g428">
        <path
   class="fil24"
   d="M6066.77 2003.14l1238.98 0c133.25,0 241.27,-100.84 241.27,-225.23 0,-124.39 -108.02,-225.23 -241.27,-225.23l-1238.98 0 0 450.45z"
   id="path426" />
       </g>
       <g
   id="g432">
        <path
   class="fil23"
   d="M6074.98 1936.25l1206.11 0c93.68,0 169.63,-70.89 169.63,-158.34 0,-87.45 -75.95,-158.34 -169.63,-158.34l-1206.11 0c-4.53,0 -8.21,3.43 -8.21,7.66l0 301.37c0,4.23 3.68,7.66 8.21,7.66z"
   id="path430" />
       </g>
      </g>
      <g
   id="g438">
       <polygon
   class="fil26"
   points="6066.77,1746.25 6877.31,1746.25 6066.77,1836.24 "
   id="polygon436" />
      </g>
     </g>
     <g
   id="g456">
      <g
   id="g450">
       <g
   id="g444">
        <path
   class="fil23"
   d="M6464.59 1102.24l1238.97 0c133.26,0 241.27,-100.84 241.27,-225.23 0,-124.39 -108.02,-225.23 -241.27,-225.23l-1238.97 0 0 450.45z"
   id="path442" />
       </g>
       <g
   id="g448">
        <path
   class="fil24"
   d="M6472.79 1035.35l1206.12 0c93.68,0 169.62,-70.89 169.62,-158.34 0,-87.45 -75.94,-158.34 -169.62,-158.34l-1206.12 0c-4.53,0 -8.2,3.43 -8.2,7.66l0 301.37c0,4.23 3.67,7.66 8.2,7.66z"
   id="path446" />
       </g>
      </g>
      <g
   id="g454">
       <polygon
   class="fil27"
   points="6464.59,832.02 7275.13,832.02 6464.59,922.01 "
   id="polygon452" />
      </g>
     </g>
     <g
   id="g468">
      <g
   id="g462">
       <path
   class="fil8"
   d="M6661.06 2992.81c1.31,7.66 -0.78,17.49 -5.54,29.56 -17.72,44.58 -157.34,117.73 -157.34,117.73l63.67 51.03c0,0 125.95,-140.49 204.35,-180.64 14.42,1.99 36.49,8.24 50.69,25.54 0.56,0.67 1.14,1.21 1.57,1.87 5.54,66.99 -158,236.09 -161.43,237.16 3.52,-0.81 174.64,-43.78 207.79,-77.99 33.82,-34.89 102.31,-86.29 122.49,-85.03 1.83,0.16 3.66,0.56 5.42,1.58 2.37,1.19 4.7,2.88 6.83,5.29 6.43,7 11.45,19.05 10.95,36.18 -0.62,24.18 -12.5,58.5 -47.28,101.58 0.18,0.77 3.89,13.57 5.22,30.99 0.22,3.11 0.44,6.35 0.41,9.55 0.35,18.7 -2.66,40.57 -14.69,58.07 -23.26,34.32 -216.27,174.04 -315.51,179.39 -13.42,0.81 -25.13,-0.95 -34.48,-5.84 -77.98,-40.16 -214.32,-313.23 -214.32,-313.23 -29.62,-21.86 -29.23,-73.25 -25.53,-110.14 3.72,-37.01 118.58,-112.57 203.53,-127.07 62.12,-10.66 89.66,-6.05 93.19,14.41z"
   id="path458" />
       <path
   class="fil9"
   d="M6963.25 3256.63c-2.11,1.61 -130.45,102.03 -225.27,133.83 37.16,-11.81 152.11,-50.68 230.47,-102.69 -1.31,-17.49 -4.99,-30.42 -5.19,-31.14z"
   id="path460" />
      </g>
      <path
   class="fil12"
   d="M6638.68 3534.75c-94.86,-82.81 -227.9,-322.18 -242.91,-342.34 -17.59,-23.63 -33.12,-52.56 61.49,-129.01 61.6,-49.8 149.77,-65.56 203.76,-70.5 -3.45,-20.59 -31.09,-25.12 -93.17,-14.53 -85.02,14.49 -199.76,90.13 -203.46,127.07 -3.68,36.97 -4.15,88.25 25.52,110.2 0,0 136.21,272.97 214.25,313.26 9.32,4.81 21.05,6.57 34.51,5.83z"
   id="path464" />
      <path
   class="fil9"
   d="M6816.9 3036.03c0.56,0.67 1.14,1.21 1.57,1.87 5.54,66.99 -158,236.09 -161.43,237.16 0,0 42.95,-70.31 49.14,-80.41 5.62,-9.15 80.32,-120.34 110.72,-158.62z"
   id="path466" />
     </g>
    </g>
    <g
   id="g542">
     <g
   id="g474">
      <path
   class="fil10"
   d="M9713.92 2058.51c0,0 380.45,221.37 395.49,301.27 15.03,79.9 189.54,1068.65 189.54,1068.65l308.13 -208.64 467.11 141.72c0,0 -732.69,810.16 -896.33,839.67 -163.64,29.52 -397.14,-548.54 -397.14,-548.54l-66.8 -1594.13z"
   id="path472" />
     </g>
     <g
   id="g478">
      <path
   class="fil21"
   d="M9730.73 2337.67c0,0 288.8,1596.16 378.68,1798.89 0,0 -150.89,-1181.41 -378.68,-1798.89z"
   id="path476" />
     </g>
     <g
   id="g528">
      <g
   id="g494">
       <g
   id="g488">
        <g
   id="g482">
         <path
   class="fil6"
   d="M11268.64 2814.24l-1436.29 0c-24.27,0 -43.95,-19.68 -43.95,-43.96l0 -362.55c0,-24.27 19.68,-43.95 43.95,-43.95l1436.29 0 0 450.45z"
   id="path480" />
        </g>
        <g
   id="g486">
         <path
   class="fil23"
   d="M11266.14 2747.35l-1329.57 0c-28.64,0 -51.86,-23.22 -51.86,-51.86l0 -212.95c0,-28.64 23.22,-51.86 51.86,-51.86l1329.57 0c1.39,0 2.5,1.12 2.5,2.5l0 311.67c0,1.38 -1.12,2.5 -2.5,2.5z"
   id="path484" />
        </g>
       </g>
       <g
   id="g492">
        <polygon
   class="fil26"
   points="11268.64,2554.05 10069.19,2554.05 11268.64,2644.05 "
   id="polygon490" />
       </g>
      </g>
      <g
   id="g510">
       <g
   id="g504">
        <g
   id="g498">
         <path
   class="fil24"
   d="M11479.47 3264.69l-1238.98 0c-133.25,0 -241.27,-100.84 -241.27,-225.23 0,-124.39 108.02,-225.23 241.27,-225.23l1238.98 0 0 450.45z"
   id="path496" />
        </g>
        <g
   id="g502">
         <path
   class="fil23"
   d="M11471.26 3197.8l-1206.12 0c-93.68,0 -169.62,-70.89 -169.62,-158.34 0,-87.45 75.94,-158.34 169.62,-158.34l1206.12 0c4.53,0 8.21,3.43 8.21,7.66l0 301.37c0,4.23 -3.68,7.66 -8.21,7.66z"
   id="path500" />
        </g>
       </g>
       <g
   id="g508">
        <polygon
   class="fil26"
   points="11479.47,3007.8 10668.92,3007.8 11479.47,3097.8 "
   id="polygon506" />
       </g>
      </g>
      <g
   id="g526">
       <g
   id="g520">
        <g
   id="g514">
         <path
   class="fil23"
   d="M11425.32 2363.79l-1238.97 0c-133.25,0 -241.27,-100.84 -241.27,-225.23 0,-124.39 108.02,-225.23 241.27,-225.23l1238.97 0 0 450.45z"
   id="path512" />
        </g>
        <g
   id="g518">
         <path
   class="fil24"
   d="M11417.12 2296.9l-1206.12 0c-93.68,0 -169.62,-70.89 -169.62,-158.34 0,-87.46 75.94,-158.34 169.62,-158.34l1206.12 0c4.53,0 8.2,3.43 8.2,7.66l0 301.37c0,4.23 -3.67,7.66 -8.2,7.66z"
   id="path516" />
        </g>
       </g>
       <g
   id="g524">
        <polygon
   class="fil27"
   points="11425.32,2093.57 10614.79,2093.57 11425.32,2183.56 "
   id="polygon522" />
       </g>
      </g>
     </g>
     <g
   id="g540">
      <g
   id="g534">
       <path
   class="fil8"
   d="M10893.79 2976.05c-1.31,7.66 0.79,17.49 5.54,29.57 17.72,44.57 157.35,117.72 157.35,117.72l-63.68 51.03c0,0 -125.95,-140.49 -204.35,-180.64 -14.41,1.99 -36.49,8.24 -50.69,25.55 -0.55,0.66 -1.13,1.2 -1.56,1.86 -5.55,66.99 157.99,236.1 161.43,237.16 -3.53,-0.81 -174.65,-43.78 -207.79,-77.99 -33.82,-34.88 -102.32,-86.29 -122.49,-85.03 -1.84,0.16 -3.66,0.56 -5.42,1.58 -2.37,1.19 -4.7,2.88 -6.84,5.3 -6.43,6.99 -11.44,19.04 -10.95,36.18 0.62,24.17 12.51,58.49 47.28,101.58 -0.18,0.76 -3.89,13.57 -5.22,30.98 -0.22,3.11 -0.44,6.35 -0.41,9.56 -0.35,18.7 2.67,40.56 14.69,58.06 23.26,34.32 216.27,174.05 315.51,179.39 13.42,0.82 25.14,-0.95 34.48,-5.84 77.98,-40.16 214.32,-313.23 214.32,-313.23 29.62,-21.86 29.24,-73.25 25.53,-110.14 -3.71,-37.01 -118.58,-112.57 -203.52,-127.07 -62.12,-10.66 -89.66,-6.05 -93.2,14.41z"
   id="path530" />
       <path
   class="fil9"
   d="M10591.61 3239.88c2.1,1.61 130.44,102.03 225.26,133.83 -37.15,-11.81 -152.11,-50.68 -230.46,-102.69 1.3,-17.49 4.98,-30.41 5.19,-31.14z"
   id="path532" />
      </g>
      <path
   class="fil12"
   d="M10916.16 3518c94.87,-82.82 227.9,-322.19 242.91,-342.35 17.6,-23.63 33.13,-52.56 -61.49,-129.01 -61.6,-49.8 -149.76,-65.56 -203.75,-70.5 3.45,-20.59 31.09,-25.12 93.16,-14.52 85.02,14.48 199.77,90.12 203.46,127.06 3.69,36.97 4.15,88.25 -25.52,110.2 0,0 -136.21,272.97 -214.25,313.26 -9.32,4.81 -21.05,6.57 -34.51,5.84z"
   id="path536" />
      <path
   class="fil9"
   d="M10737.95 3019.28c-0.55,0.66 -1.13,1.2 -1.56,1.86 -5.55,66.99 157.99,236.1 161.43,237.16 0,0 -42.96,-70.31 -49.15,-80.4 -5.62,-9.16 -80.32,-120.35 -110.72,-158.62z"
   id="path538" />
     </g>
    </g>
   </g>
   <g
   id="g578">
    <g
   id="g548">
     <path
   class="fil28"
   d="M9839.82 922.15l-27.27 -86.02 -27.26 86.02c-29.72,93.81 -94.5,172.53 -180.84,219.75l0 0 0 0c86.34,47.22 151.12,125.93 180.84,219.73l27.26 86.03 27.27 -86.03c29.72,-93.8 94.5,-172.52 180.84,-219.73l0 0 0 0c-86.34,-47.23 -151.12,-125.94 -180.84,-219.75z"
   id="path546" />
    </g>
    <g
   id="g552">
     <path
   class="fil29"
   d="M6198.65 3705.52l-27.26 -86.02 -27.26 86.02c-29.72,93.81 -94.51,172.54 -180.84,219.75l0 0 0 0c86.34,47.22 151.12,125.93 180.84,219.74l27.26 86.02 27.26 -86.02c29.73,-93.81 94.51,-172.53 180.84,-219.74l0.01 0 -0.01 0c-86.33,-47.22 -151.11,-125.94 -180.84,-219.75z"
   id="path550" />
    </g>
    <g
   id="g556">
     <path
   class="fil29"
   d="M10325.89 422.51l-16.68 -52.63 -16.68 52.63c-18.18,57.41 -57.82,105.56 -110.65,134.46l0 0 0 0c52.83,28.9 92.46,77.05 110.65,134.45l16.68 52.64 16.68 -52.64c18.19,-57.4 57.82,-105.55 110.66,-134.45l0 0 0 0c-52.83,-28.9 -92.46,-77.05 -110.66,-134.46z"
   id="path554" />
    </g>
    <g
   id="g560">
     <path
   class="fil28"
   d="M10791.66 1377.24l-10.52 -33.2 -10.51 33.2c-11.47,36.18 -36.47,66.56 -69.77,84.78l-0.01 0 0.01 0c33.3,18.21 58.3,48.58 69.77,84.77l10.51 33.2 10.52 -33.2c11.47,-36.18 36.47,-66.56 69.78,-84.77l0 0 0 0c-33.31,-18.22 -58.31,-48.59 -69.78,-84.78z"
   id="path558" />
    </g>
    <g
   id="g564">
     <path
   class="fil28"
   d="M5654.7 3364.46l-10.52 -33.19 -10.52 33.19c-11.47,36.19 -36.47,66.57 -69.77,84.78l0 0 0 0c33.3,18.22 58.3,48.58 69.77,84.78l10.52 33.2 10.52 -33.2c11.47,-36.18 36.46,-66.56 69.77,-84.78l0 0 0 0c-33.31,-18.21 -58.3,-48.58 -69.77,-84.78z"
   id="path562" />
    </g>
    <g
   id="g568">
     <path
   class="fil28"
   d="M11064.91 3977.91l-16.68 -52.63 -16.68 52.63c-18.18,57.41 -57.83,105.56 -110.66,134.46l0 0 0 0c52.83,28.89 92.47,77.05 110.66,134.45l16.68 52.64 16.68 -52.64c18.18,-57.4 57.82,-105.56 110.65,-134.45l0 0 0 0c-52.83,-28.9 -92.46,-77.05 -110.65,-134.46z"
   id="path566" />
    </g>
    <g
   id="g572">
     <path
   class="fil28"
   d="M5979.98 426.05l-16.68 -52.63 -16.68 52.63c-18.18,57.41 -57.82,105.56 -110.65,134.46l-0.01 0 0.01 0c52.83,28.89 92.46,77.05 110.65,134.45l16.68 52.64 16.68 -52.64c18.18,-57.4 57.82,-105.56 110.65,-134.45l0 0 0 0c-52.83,-28.9 -92.46,-77.05 -110.65,-134.46z"
   id="path570" />
    </g>
    <g
   id="g576">
     <path
   class="fil28"
   d="M7577.64 43.98l-13.93 -43.98 -13.93 43.98c-15.2,47.94 -48.31,88.18 -92.43,112.32l0 0 0 0c44.13,24.14 77.24,64.37 92.43,112.33l13.93 43.97 13.93 -43.97c15.2,-47.95 48.3,-88.18 92.43,-112.33 -44.13,-24.13 -77.24,-64.37 -92.43,-112.32z"
   id="path574" />
    </g>
   </g>
  </g>
 </g>
</svg>
